<svg width="50" height="59" viewBox="0 0 50 59" fill="none" xmlns="http://www.w3.org/2000/svg">
<path d="M4.5511 52.7125L0 0.309875H50L45.4433 52.7038L24.9689 58.5305L4.5511 52.7125Z" fill="#1572B6"/>
<path d="M25 54.0779L41.5443 49.3672L45.4348 4.59436H25V54.0779Z" fill="#33A9DC"/>
<path d="M25 23.579H33.2835L33.8538 16.9986H25V10.5748H40.6973L40.5477 12.2996L39.009 30.0115H25V23.579Z" fill="white"/>
<path d="M25.0338 40.2706H25.0056L18.0349 38.3371L17.5889 33.2119H11.3099L12.188 43.3028L25.0112 46.967H25.0479V40.2706H25.0338Z" fill="white"/>
<path d="M32.7526 29.7304L31.9988 38.3313L25.0168 40.2648V46.9612L37.8486 43.3086L37.9417 42.2215L39.0315 29.7275H32.7526V29.7304Z" fill="white"/>
<path d="M25.0226 10.5748V17.0015H9.90688L9.77701 15.5579L9.49186 12.2996L9.34222 10.5748H25.0226ZM25 23.579V30.0057H18.1085L17.9871 28.5621L17.7019 25.3038L17.5523 23.579H24.9972H25Z" fill="white"/>
</svg>
