<svg width="22" height="22" viewBox="0 0 22 22" fill="none" xmlns="http://www.w3.org/2000/svg">
<g clip-path="url(#clip0)">
<path d="M21.4683 17.5084C21.0329 18.0309 20.3885 18.3334 19.7083 18.3334H2.29167C1.61152 18.3334 0.967071 18.0309 0.53167 17.5084L8.9375 10.5051L9.80835 11.101C10.5261 11.596 11.4739 11.596 12.1917 11.101L13.0625 10.5051L21.4683 17.5084Z" fill="#1E88E5"/>
<path d="M21.5967 4.66597L13.0625 10.5051L12.1917 11.101C11.4739 11.596 10.5261 11.596 9.80833 11.101L8.93748 10.5051L0.403389 4.65677C0.833291 4.03802 1.53823 3.66768 2.29173 3.66677H19.7084C20.4655 3.66312 21.1741 4.03802 21.5967 4.66597Z" fill="#64B5F6"/>
<path d="M8.93761 10.505L0.531775 17.5084C0.188025 17.0968 -0.000821955 16.578 0.000123356 16.0417V5.95839C-0.00262664 5.49364 0.138525 5.03899 0.40347 4.65674L8.93761 10.505Z" fill="#006ED3"/>
<path d="M22 5.95827V16.0416C22.0009 16.5778 21.8121 17.0967 21.4684 17.5082L13.0625 10.5049L21.5967 4.66577C21.8607 5.04527 22.0019 5.49627 22 5.95827Z" fill="#006ED3"/>
<path d="M19.7093 18.3334H2.29265C1.0295 18.3334 0.000999451 17.3058 0.000999451 16.0417V5.9584C0.000999451 4.69525 1.0295 3.66675 2.29265 3.66675H19.7093C20.9734 3.66675 22.0009 4.69525 22.0009 5.9584V16.0417C22.001 17.3058 20.9734 18.3334 19.7093 18.3334ZM2.29265 4.5834C1.53455 4.5834 0.91765 5.2003 0.91765 5.9584V16.0417C0.91765 16.7998 1.53455 17.4167 2.29265 17.4167H19.7093C20.4674 17.4167 21.0843 16.7998 21.0843 16.0417V5.9584C21.0843 5.2003 20.4674 4.5834 19.7093 4.5834H2.29265Z" fill="black"/>
<path d="M11 11.9259C10.4913 11.9259 9.98344 11.7774 9.54988 11.4804L2.0332 6.337C1.8242 6.194 1.77105 5.908 1.9131 5.6999C2.0552 5.4909 2.34026 5.43775 2.5502 5.58075L10.0669 10.7242C10.6242 11.1064 11.374 11.1064 11.9323 10.7242L19.4489 5.58075C19.6579 5.43959 19.9421 5.4909 20.086 5.6999C20.2281 5.9089 20.1759 6.194 19.9659 6.337L12.4493 11.4813C12.0166 11.7774 11.5088 11.9259 11 11.9259Z" fill="black"/>
<path d="M2.29167 16.5C2.15967 16.5 2.02952 16.4432 1.93877 16.335C1.77652 16.1407 1.80312 15.8519 1.99742 15.6897L7.49741 11.1063C7.69266 10.9441 7.98141 10.9716 8.14366 11.1641C8.30591 11.3584 8.27931 11.6472 8.08501 11.8094L2.58502 16.3928C2.49977 16.4652 2.39527 16.5 2.29167 16.5Z" fill="black"/>
<path d="M19.7084 16.4999C19.6048 16.4999 19.5003 16.4651 19.415 16.3936L13.915 11.8103C13.7207 11.648 13.695 11.3593 13.8573 11.1649C14.0204 10.9706 14.3092 10.9449 14.5026 11.1072L20.0026 15.6905C20.197 15.8528 20.2226 16.1415 20.0604 16.3358C19.9696 16.4431 19.8394 16.4999 19.7084 16.4999Z" fill="black"/>
</g>
<defs>
<clipPath id="clip0">
<rect width="22" height="22" fill="white"/>
</clipPath>
</defs>
</svg>
