<svg width="100" height="100" viewBox="0 0 100 100" fill="none" xmlns="http://www.w3.org/2000/svg">
<path d="M49.8066 0C22.3027 0 0 22.9223 0 51.1993C0 73.8208 14.2711 93.0123 34.0609 99.7824C36.55 100.256 37.4641 98.6718 37.4641 97.3193C37.4641 96.0986 37.4176 92.0651 37.3965 87.787C23.5398 90.8841 20.616 81.7461 20.616 81.7461C18.3504 75.8281 15.0859 74.2549 15.0859 74.2549C10.5672 71.077 15.4266 71.1421 15.4266 71.1421C20.4281 71.5035 23.0617 76.4184 23.0617 76.4184C27.5039 84.2458 34.7133 81.9827 37.5555 80.6748C38.0023 77.3653 39.2934 75.107 40.7176 73.8284C29.6551 72.5334 18.0254 68.1433 18.0254 48.5254C18.0254 42.9358 19.9711 38.3682 23.1574 34.7828C22.6402 33.493 20.9355 28.2858 23.6398 21.2334C23.6398 21.2334 27.8223 19.8573 37.3402 26.4816C41.3129 25.3469 45.5738 24.7783 49.8066 24.759C54.0395 24.7783 58.3035 25.3469 62.284 26.4816C71.7906 19.8573 75.9672 21.2334 75.9672 21.2334C78.6781 28.2858 76.9727 33.493 76.4555 34.7828C79.6488 38.3682 81.5813 42.9354 81.5813 48.5254C81.5813 68.1899 69.9297 72.5202 58.8391 73.7875C60.6254 75.3764 62.2172 78.4924 62.2172 83.2688C62.2172 90.1192 62.1594 95.6328 62.1594 97.3193C62.1594 98.6818 63.0559 100.278 65.5809 99.7756C85.3598 92.9979 99.6129 73.8132 99.6129 51.1993C99.6129 22.9223 77.3133 0 49.8066 0Z" fill="#161614"/>
<path d="M18.6543 72.9346C18.5449 73.1888 18.1551 73.2651 17.8008 73.0908C17.4394 72.9238 17.2363 72.5768 17.3535 72.3214C17.4609 72.0596 17.8508 71.9866 18.2113 72.1624C18.5734 72.3291 18.7797 72.6792 18.6543 72.9346ZM21.1043 75.1817C20.8668 75.4081 20.4023 75.3029 20.0871 74.9452C19.7613 74.5882 19.7004 74.1111 19.9414 73.8811C20.1863 73.655 20.6367 73.7606 20.9632 74.118C21.289 74.479 21.3523 74.9532 21.1039 75.1821L21.1043 75.1817ZM22.7851 78.0567C22.4796 78.2748 21.9804 78.0704 21.6722 77.615C21.3672 77.1601 21.3672 76.614 21.6789 76.3951C21.9882 76.1763 22.4796 76.3731 22.7921 76.8248C23.0968 77.2878 23.0968 77.8339 22.7847 78.0572L22.7851 78.0567ZM25.6273 81.3868C25.3542 81.696 24.773 81.6133 24.3472 81.1908C23.9121 80.778 23.7906 80.1922 24.0644 79.8826C24.3406 79.5726 24.9253 79.6597 25.3542 80.0785C25.7867 80.4905 25.9187 81.0808 25.6277 81.3868H25.6273ZM29.3007 82.5111C29.1808 82.9119 28.6206 83.0942 28.0566 82.9239C27.4933 82.7484 27.1246 82.2786 27.2382 81.8735C27.3554 81.4699 27.9179 81.28 28.4863 81.4623C29.0488 81.6369 29.4183 82.1031 29.3011 82.5111H29.3007ZM33.482 82.9878C33.496 83.4102 33.0175 83.7603 32.4253 83.768C31.8296 83.7812 31.348 83.4395 31.3417 83.0243C31.3417 82.5978 31.8093 82.2509 32.4046 82.2409C32.9968 82.2288 33.482 82.5681 33.482 82.9878ZM37.589 82.8259C37.6601 83.2379 37.2484 83.6611 36.6605 83.7736C36.0823 83.882 35.5472 83.6278 35.4734 83.2194C35.4015 82.797 35.821 82.3742 36.398 82.2646C36.987 82.1594 37.514 82.4071 37.589 82.8259Z" fill="#161614"/>
</svg>
