<svg width="400" height="412" viewBox="0 0 400 412" fill="none" xmlns="http://www.w3.org/2000/svg">
<path d="M200 400.327C298.307 400.327 378 353.085 378 294.808C378 236.531 298.307 189.288 200 189.288C101.693 189.288 22 236.531 22 294.808C22 353.085 101.693 400.327 200 400.327Z" fill="#F5F5F5"/>
<path d="M76.464 315.746C87.3462 315.746 96.168 310.516 96.168 304.065C96.168 297.614 87.3462 292.385 76.464 292.385C65.5818 292.385 56.76 297.614 56.76 304.065C56.76 310.516 65.5818 315.746 76.464 315.746Z" fill="#E6E6E6"/>
<path d="M228.208 241.449L98.704 318.227C98.2038 318.511 97.7869 318.927 97.4966 319.433C97.2063 319.938 97.0532 320.515 97.0532 321.102C97.0532 321.688 97.2063 322.265 97.4966 322.77C97.7869 323.276 98.2038 323.692 98.704 323.977L174.816 369.097C176.729 370.231 178.899 370.828 181.108 370.828C183.317 370.828 185.487 370.231 187.4 369.097L316.904 292.327C317.404 292.043 317.821 291.627 318.111 291.121C318.402 290.615 318.555 290.039 318.555 289.452C318.555 288.865 318.402 288.289 318.111 287.784C317.821 287.278 317.404 286.861 316.904 286.577L240.8 241.449C238.886 240.313 236.715 239.715 234.504 239.715C232.293 239.715 230.122 240.313 228.208 241.449Z" fill="#E6E6E6"/>
<path d="M189.32 242.196L137.48 272.933C136.438 273.549 135.573 274.436 134.971 275.504C134.369 276.573 134.052 277.786 134.052 279.02C134.052 280.254 134.369 281.467 134.971 282.535C135.573 283.604 136.438 284.491 137.48 285.107L163.584 300.582C165.312 301.604 167.27 302.141 169.264 302.141C171.258 302.141 173.216 301.604 174.944 300.582L226.792 269.845C227.832 269.227 228.695 268.34 229.295 267.271C229.896 266.203 230.212 264.991 230.212 263.758C230.212 262.525 229.896 261.313 229.295 260.245C228.695 259.176 227.832 258.289 226.792 257.671L200.68 242.196C198.954 241.17 196.994 240.63 195 240.63C193.006 240.63 191.046 241.17 189.32 242.196Z" fill="#E6E6E6"/>
<path d="M77.504 273.87C77.504 273.87 65.328 261.656 72.256 241.202C76.136 229.743 89.008 221.324 96.336 220.535C93.9098 223.495 91.9746 226.845 90.608 230.45L81.376 236.75L89.864 234.023L88.056 241.481C88.056 241.481 80.168 246.41 79 247.445L87.504 245.12C87.504 245.12 86.848 266.247 77.504 273.87Z" fill="#00D369"/>
<path opacity="0.4" d="M77.504 273.87C77.504 273.87 65.328 261.656 72.256 241.202C76.136 229.743 89.008 221.324 96.336 220.535C93.9098 223.495 91.9746 226.845 90.608 230.45L81.376 236.75L89.864 234.023L88.056 241.481C88.056 241.481 80.168 246.41 79 247.445L87.504 245.12C87.504 245.12 86.848 266.247 77.504 273.87Z" fill="black"/>
<path d="M77.504 273.87C77.504 273.87 71.2 248.316 80.528 233.415C80.528 233.382 69.6 246.533 77.504 273.87Z" fill="white"/>
<path d="M91.44 277.295L76.536 277.098H76.384L61.488 277.295C61.488 277.295 61.32 296.139 66.976 303.802C68.576 305.848 72.2 307.277 76.464 307.277C80.728 307.277 84.4 305.84 85.96 303.794C91.6 296.122 91.44 277.295 91.44 277.295Z" fill="#37474F"/>
<path d="M76.464 285.551C84.735 285.551 91.44 281.855 91.44 277.295C91.44 272.736 84.735 269.04 76.464 269.04C68.193 269.04 61.488 272.736 61.488 277.295C61.488 281.855 68.193 285.551 76.464 285.551Z" fill="#455A64"/>
<path d="M76.464 275.102C81.616 275.102 85.976 276.802 87.512 279.152C87.8909 278.61 88.1002 277.962 88.112 277.295C88.112 274.01 82.896 271.389 76.464 271.389C70.032 271.389 64.8 274.034 64.8 277.295C64.8134 277.961 65.0195 278.607 65.392 279.152C66.944 276.802 71.312 275.102 76.464 275.102Z" fill="#263238"/>
<path d="M76.464 283.201C82.5657 283.201 87.512 281.388 87.512 279.152C87.512 276.915 82.5657 275.102 76.464 275.102C70.3624 275.102 65.416 276.915 65.416 279.152C65.416 281.388 70.3624 283.201 76.464 283.201Z" fill="#E0E0E0"/>
<path d="M76.648 280.17C76.648 280.17 70.872 279.94 65.928 272.071C63.88 268.826 62.896 267.143 62.896 267.143L70.896 266.526L61.888 264.218L57.632 257.532L65.112 256.957C65.112 256.957 59.512 254.953 55.568 254.928C55.568 254.928 48.664 242.418 46.648 240.635C51.8651 240.964 56.9651 242.364 61.6465 244.751C66.3279 247.138 70.4959 250.465 73.904 254.534C85.28 268.276 78.328 280.523 76.648 280.17Z" fill="#00D369"/>
<path d="M76.648 280.17C76.648 280.17 80.256 257.844 57.224 244.422C57.224 244.422 81.128 256.21 76.648 280.17Z" fill="white"/>
<path d="M76.648 280.17C76.648 280.17 81.872 280.515 87.048 273.895C89.184 271.167 90.248 269.722 90.248 269.722L83.048 268.391L91.384 267.175L95.84 261.549L89.144 260.308C89.144 260.308 94.352 259.043 97.944 259.405C97.944 259.405 105.32 248.776 107.304 247.363C102.566 247.157 97.8368 247.929 93.3945 249.632C88.9522 251.335 84.8874 253.934 81.44 257.277C69.944 268.605 75.096 280.326 76.648 280.17Z" fill="#00D369"/>
<path opacity="0.2" d="M76.648 280.17C76.648 280.17 81.872 280.515 87.048 273.895C89.184 271.167 90.248 269.722 90.248 269.722L83.048 268.391L91.384 267.175L95.84 261.549L89.144 260.308C89.144 260.308 94.352 259.043 97.944 259.405C97.944 259.405 105.32 248.776 107.304 247.363C102.566 247.157 97.8368 247.929 93.3945 249.632C88.9522 251.335 84.8874 253.934 81.44 257.277C69.944 268.605 75.096 280.326 76.648 280.17Z" fill="black"/>
<path d="M76.648 280.17C76.648 280.17 75.432 259.684 97.448 249.778C97.448 249.794 74.8 258.123 76.648 280.17Z" fill="white"/>
<path d="M103.128 98.4148V139.223L68.704 159.627V118.819L103.128 98.4148Z" fill="#FAFAFA"/>
<path d="M99.4 100.624V137.013L68.704 155.208V118.819L99.4 100.624ZM101.264 97.3388L66.864 117.743V158.551L68.728 159.66L103.128 139.256V98.4148L101.264 97.3059V97.3388Z" fill="#E0E0E0"/>
<path d="M101.264 101.725V138.114L70.568 156.308V119.92L101.264 101.725ZM103.128 98.4394L68.728 118.843V159.652L103.128 139.248V98.4148V98.4394Z" fill="#EBEBEB"/>
<path d="M98.072 129.883L72.032 145.318L79.728 124.774L85.056 131.263L90.504 123.304L98.072 129.883Z" fill="#E0E0E0"/>
<path d="M89.04 117.061C88.9931 117.91 88.7512 118.736 88.3341 119.472C87.917 120.207 87.3365 120.83 86.64 121.291C85.328 122.063 84.24 121.439 84.24 119.878C84.2882 119.03 84.5306 118.206 84.9477 117.472C85.3647 116.739 85.9446 116.117 86.64 115.656C88 114.876 89.04 115.509 89.04 117.061Z" fill="#E0E0E0"/>
<path d="M114.608 47.6097V80.1133L87.192 96.3692V63.8574L114.608 47.6097Z" fill="#FAFAFA"/>
<path d="M111.64 49.3679V78.3722L87.2 92.8538V63.8577L111.648 49.3679H111.64ZM113.136 46.7229L85.704 62.9788V95.4906L87.192 96.3695L114.608 80.1136V47.6018L113.128 46.7229H113.136Z" fill="#E0E0E0"/>
<path d="M113.128 50.2465V79.2344L88.672 93.7325V64.7364L113.128 50.2465ZM114.608 47.6016L87.2 63.8574V96.3692L114.616 80.1133V47.6016H114.608Z" fill="#EBEBEB"/>
<path d="M110.584 72.6798L89.84 84.9764L95.968 68.6055L100.216 73.7805L104.552 67.4309L110.584 72.6798Z" fill="#E0E0E0"/>
<path d="M103.392 62.4613C103.357 63.1364 103.167 63.7934 102.837 64.3787C102.508 64.964 102.048 65.461 101.496 65.8291C100.448 66.4534 99.608 65.9441 99.608 64.712C99.6416 64.0375 99.8301 63.3807 100.158 62.7954C100.486 62.21 100.945 61.7127 101.496 61.3442C102.544 60.7199 103.392 61.2292 103.392 62.4613Z" fill="#E0E0E0"/>
<path d="M172.92 235.534L184.048 305.265C184.13 305.775 184.385 306.238 184.769 306.572C185.153 306.906 185.641 307.089 186.144 307.088C186.442 307.088 186.736 307.023 187.008 306.898C187.279 306.773 187.522 306.591 187.721 306.363C187.919 306.135 188.069 305.867 188.16 305.576C188.25 305.285 188.281 304.977 188.248 304.673L180.44 232.733L172.92 235.534Z" fill="#263238"/>
<path d="M211.336 212.083L222.472 281.813C222.552 282.322 222.806 282.786 223.189 283.12C223.571 283.454 224.058 283.637 224.56 283.637C224.858 283.636 225.153 283.571 225.426 283.446C225.698 283.32 225.941 283.137 226.14 282.909C226.339 282.68 226.488 282.411 226.578 282.118C226.669 281.826 226.698 281.518 226.664 281.214L218.856 209.282L211.336 212.083Z" fill="#263238"/>
<path d="M155.84 219.229L144.856 279.316C144.782 279.737 144.566 280.118 144.246 280.392C143.925 280.665 143.521 280.814 143.104 280.811C142.848 280.81 142.594 280.753 142.361 280.643C142.128 280.533 141.921 280.373 141.753 280.173C141.586 279.974 141.462 279.74 141.39 279.487C141.318 279.235 141.299 278.969 141.336 278.708L149.448 223.016L155.84 219.229Z" fill="#263238"/>
<path d="M194.688 196.813L183.768 256.53C183.694 256.951 183.478 257.332 183.158 257.606C182.837 257.879 182.433 258.028 182.016 258.025C181.76 258.024 181.508 257.967 181.275 257.857C181.043 257.748 180.836 257.588 180.669 257.39C180.501 257.192 180.377 256.959 180.304 256.707C180.232 256.455 180.213 256.19 180.248 255.93L188.296 200.591L194.688 196.813Z" fill="#263238"/>
<path d="M191.52 192.262C189.002 191.118 186.824 189.309 185.21 187.019C183.595 184.728 182.6 182.04 182.328 179.226C180.56 160.925 174.28 123.222 153.016 135.773C126.76 151.265 136.16 196.254 139.976 210.678C140.824 213.928 142.478 216.897 144.776 219.295C149.52 224.223 159.336 232.651 176.04 239.83C178.089 240.709 180.368 240.848 182.504 240.225C190.8 237.802 212.472 230.368 223.304 216.157C223.917 215.352 224.196 214.33 224.079 213.315C223.962 212.299 223.459 211.372 222.68 210.736C218.304 207.171 208.408 200 191.52 192.262Z" fill="#00D369"/>
<path opacity="0.5" d="M191.52 192.262C189.002 191.118 186.824 189.309 185.21 187.019C183.595 184.728 182.6 182.04 182.328 179.226C180.56 160.925 174.28 123.222 153.016 135.773C126.76 151.265 136.16 196.254 139.976 210.678C140.824 213.928 142.478 216.897 144.776 219.295C149.52 224.223 159.336 232.651 176.04 239.83C178.089 240.709 180.368 240.848 182.504 240.225C190.8 237.802 212.472 230.368 223.304 216.157C223.917 215.352 224.196 214.33 224.079 213.315C223.962 212.299 223.459 211.372 222.68 210.736C218.304 207.171 208.408 200 191.52 192.262Z" fill="black"/>
<path d="M224.088 213.586C224.135 214.517 223.85 215.434 223.288 216.165C222.712 216.929 222.096 217.66 221.464 218.383C221.112 218.777 220.76 219.163 220.392 219.541C220.032 219.919 219.664 220.289 219.288 220.658L218.152 221.743C217.76 222.096 217.352 222.449 216.96 222.794C210.824 228.076 203.36 232.101 196.744 235L195.512 235.534L195.384 235.584L194.248 236.06L194.048 236.134L192.992 236.561L192.752 236.66L191.768 237.038L191.48 237.144L190.568 237.489L190.24 237.613L189.4 237.916L189.056 238.04L188.256 238.311L187.88 238.442L187.176 238.68L186.776 238.82L186.144 239.025L185.712 239.165L185.168 239.346L184.704 239.485L184.248 239.633L183.68 239.806L183.392 239.888C183.12 239.978 182.848 240.052 182.592 240.126C180.456 240.75 178.177 240.611 176.128 239.732C159.424 232.544 149.608 224.125 144.864 219.196C142.566 216.798 140.912 213.829 140.064 210.58C136.248 196.156 126.848 151.166 153.104 135.674C153.568 135.406 154.024 135.16 154.472 134.935L154.768 134.787C155.216 134.574 155.648 134.377 156.08 134.204L156.208 134.155C156.616 133.999 157.008 133.859 157.424 133.744L157.608 133.687C158.04 133.563 158.464 133.465 158.88 133.383H158.992C159.821 133.231 160.663 133.17 161.504 133.202H161.552C162.363 133.233 163.169 133.36 163.952 133.58C159.76 131.682 154.64 131.764 149.552 134.763C123.296 150.255 132.696 195.244 136.512 209.668L137.16 212.132C138.462 217.138 141.343 221.561 145.352 224.708L152.168 230.055C159.489 235.786 167.499 240.524 176 244.151C178.055 245.04 180.343 245.185 182.488 244.562C190.776 242.139 212.464 234.705 223.288 220.494C223.756 219.889 224.034 219.153 224.088 218.383V213.578V213.586Z" fill="#00D369"/>
<path opacity="0.6" d="M224.088 213.586C224.135 214.517 223.85 215.434 223.288 216.165C222.712 216.929 222.096 217.66 221.464 218.383C221.112 218.777 220.76 219.163 220.392 219.541C220.032 219.919 219.664 220.289 219.288 220.658L218.152 221.743C217.76 222.096 217.352 222.449 216.96 222.794C210.824 228.076 203.36 232.101 196.744 235L195.512 235.534L195.384 235.584L194.248 236.06L194.048 236.134L192.992 236.561L192.752 236.66L191.768 237.038L191.48 237.144L190.568 237.489L190.24 237.613L189.4 237.916L189.056 238.04L188.256 238.311L187.88 238.442L187.176 238.68L186.776 238.82L186.144 239.025L185.712 239.165L185.168 239.346L184.704 239.485L184.248 239.633L183.68 239.806L183.392 239.888C183.12 239.978 182.848 240.052 182.592 240.126C180.456 240.75 178.177 240.611 176.128 239.732C159.424 232.544 149.608 224.125 144.864 219.196C142.566 216.798 140.912 213.829 140.064 210.58C136.248 196.156 126.848 151.166 153.104 135.674C153.568 135.406 154.024 135.16 154.472 134.935L154.768 134.787C155.216 134.574 155.648 134.377 156.08 134.204L156.208 134.155C156.616 133.999 157.008 133.859 157.424 133.744L157.608 133.687C158.04 133.563 158.464 133.465 158.88 133.383H158.992C159.821 133.231 160.663 133.17 161.504 133.202H161.552C162.363 133.233 163.169 133.36 163.952 133.58C159.76 131.682 154.64 131.764 149.552 134.763C123.296 150.255 132.696 195.244 136.512 209.668L137.16 212.132C138.462 217.138 141.343 221.561 145.352 224.708L152.168 230.055C159.489 235.786 167.499 240.524 176 244.151C178.055 245.04 180.343 245.185 182.488 244.562C190.776 242.139 212.464 234.705 223.288 220.494C223.756 219.889 224.034 219.153 224.088 218.383V213.578V213.586Z" fill="black"/>
<path d="M238.568 265.064C236.776 253.326 234.48 234.565 233.168 223.476C233.083 222.748 232.963 222.025 232.808 221.307C232.117 218.247 230.823 215.364 229.006 212.836C227.188 210.309 224.886 208.191 222.24 206.612L195.312 190.184L177.032 180.327C177.032 180.327 172.168 194.8 177.832 203.655C182.536 211.048 203.304 220.149 209.48 223.23C215.656 226.31 215.784 227.139 215.656 231.255C215.528 235.37 215.52 240.611 223.104 257.023C225.288 261.738 226.808 265.237 227.864 267.972C231.65 268.273 235.423 267.248 238.568 265.064Z" fill="#00D369"/>
<path opacity="0.7" d="M238.568 265.064C236.776 253.326 234.48 234.565 233.168 223.476C233.039 222.387 232.836 221.308 232.56 220.248C230.985 214.512 227.298 209.631 222.28 206.637L195.312 190.151L177.032 180.294C177.032 180.294 172.168 194.767 177.832 203.622C182.536 211.015 203.304 220.116 209.48 223.197C215.656 226.277 215.784 227.107 215.656 231.222C215.528 235.337 215.52 240.578 223.104 256.99C225.288 261.705 226.808 265.204 227.864 267.939C231.646 268.249 235.419 267.236 238.568 265.064Z" fill="black"/>
<path d="M230.24 277.492C230.229 277.979 230.342 278.461 230.568 278.889C231.641 280.751 233.009 282.417 234.616 283.817C238.248 287.177 250.272 300.328 254.496 292.163C254.496 292.163 242.072 279.948 240.432 274.913C239.619 271.669 238.997 268.377 238.568 265.056C235.412 267.226 231.633 268.233 227.848 267.915C230.176 273.87 230.28 275.8 230.24 277.492Z" fill="#FFA8A7"/>
<path d="M243.2 276.688L242.856 275.628C242.718 275.239 242.442 274.918 242.083 274.729C241.724 274.54 241.308 274.497 240.92 274.609L235.888 276.203C235.572 276.303 235.296 276.505 235.1 276.779C234.904 277.052 234.799 277.383 234.8 277.723V278.24C234.798 278.485 234.702 278.719 234.532 278.891C234.363 279.063 234.134 279.16 233.896 279.16C232.83 279.161 231.798 278.78 230.976 278.084L230.272 277.493V275.685C229.818 275.989 229.45 276.41 229.204 276.906C228.959 277.402 228.844 277.956 228.872 278.511C228.936 279.735 228.992 281.23 228.944 281.797C228.864 282.881 227.88 287.399 229.056 288.738C230.232 290.077 232.872 290.233 236.136 289.871C239.4 289.51 242.968 292.804 245.992 294.028C249.016 295.252 261.544 297.88 261.512 289.658C261.512 287.563 259.488 286.709 257.512 285.97C255.536 285.23 248.384 282.643 246.552 281.09C245.816 280.461 245.133 279.769 244.512 279.02C243.929 278.339 243.483 277.547 243.2 276.688Z" fill="#455A64"/>
<path d="M245.96 294.052C242.936 292.828 239.368 289.534 236.104 289.896C232.84 290.257 230.2 290.101 229.024 288.762C228.647 288.206 228.451 287.542 228.464 286.865C228.408 288.13 228.504 289.329 229.024 289.937C230.2 291.276 232.84 291.432 236.104 291.071C239.368 290.709 242.936 294.011 245.96 295.227C248.984 296.443 261.512 299.079 261.48 290.857C261.472 290.738 261.456 290.62 261.432 290.504C260.648 297.691 248.88 295.227 245.96 294.052Z" fill="#263238"/>
<path d="M214.112 279.308C212.312 267.578 210.024 248.817 208.704 237.719C208.014 231.888 205.209 226.538 200.848 222.737L168.536 194.529L151.264 194.192C151.264 194.192 147.704 208.978 153.352 217.825C158.064 225.217 178.824 234.327 185 237.399C191.176 240.471 191.304 241.317 191.176 245.424C191.048 249.531 191.04 254.78 198.632 271.192C200.808 275.915 202.328 279.406 203.384 282.142C207.169 282.466 210.949 281.467 214.112 279.308Z" fill="#00D369"/>
<path opacity="0.7" d="M214.112 279.308C212.312 267.578 210.024 248.817 208.704 237.719C208.014 231.888 205.209 226.538 200.848 222.737L168.536 194.529L151.264 194.192C151.264 194.192 147.704 208.978 153.352 217.825C158.064 225.217 178.824 234.327 185 237.399C191.176 240.471 191.304 241.317 191.176 245.424C191.048 249.531 191.04 254.78 198.632 271.192C200.808 275.915 202.328 279.406 203.384 282.142C207.169 282.466 210.949 281.467 214.112 279.308Z" fill="black"/>
<path d="M205.768 290.676C205.768 291.169 205.44 292.623 206.104 293.14C206.952 293.789 207.76 295.868 210.16 298.069C213.784 301.429 217.616 294.192 215.968 289.173C215.16 285.928 214.54 282.637 214.112 279.316C210.952 281.484 207.172 282.491 203.384 282.175C205.72 288.105 205.816 288.992 205.768 290.676Z" fill="#FFA8A7"/>
<path d="M184.416 133.013C186.888 132.61 189.419 133.12 191.559 134.453C193.699 135.785 195.31 137.854 196.104 140.291C197.245 143.81 197.978 147.455 198.288 151.15C199.224 162.527 199.48 168.211 199.48 168.211L210.608 173.394C210.608 173.394 204.6 173.69 205.008 182.43L191.144 178.84L184.416 133.013Z" fill="#FFA8A7"/>
<path d="M199.888 161.336C198.248 149.014 197.6 142.566 196.192 139.511C195.226 137.226 193.538 135.343 191.402 134.164C189.265 132.985 186.804 132.58 184.416 133.013L188.608 166.856L189.144 166.806C192.856 166.43 196.353 164.841 199.12 162.272L199.888 161.336Z" fill="#00D369"/>
<path opacity="0.2" d="M199.888 161.336C198.248 149.014 197.6 142.566 196.192 139.511C195.226 137.226 193.538 135.343 191.402 134.164C189.265 132.985 186.804 132.58 184.416 133.013L188.608 166.856L189.144 166.806C192.856 166.43 196.353 164.841 199.12 162.272L199.888 161.336Z" fill="black"/>
<path d="M199.48 168.211C198.23 168.606 197.098 169.321 196.192 170.289C196.192 170.289 197.536 167.669 199.392 166.856L199.48 168.211Z" fill="#F28F8F"/>
<path d="M157.68 142.993L170.128 136.8L180.384 133.161C180.384 133.161 188.608 130.475 190.704 141.72C192.44 150.961 192.664 186.077 192.664 186.077L192.48 189.913C192.48 189.913 187.736 203.565 170.784 204.698C153.832 205.832 150.528 198.488 150.528 198.488C150.528 198.488 148.8 152.021 157.68 142.993Z" fill="#00D369"/>
<path d="M196.904 105.479C196.904 105.479 200.752 115.607 195.44 120.068C190.128 124.528 192 106.572 192 106.572L196.904 105.479Z" fill="#263238"/>
<path d="M230.248 163.381L112 233.481V248.669V322.473C112.006 322.766 112.093 323.051 112.252 323.294C112.411 323.538 112.634 323.729 112.896 323.845C113.572 324.2 114.321 324.385 115.08 324.385C115.839 324.385 116.588 324.2 117.264 323.845C117.524 323.728 117.746 323.536 117.903 323.293C118.061 323.05 118.147 322.765 118.152 322.473V252.324L182.264 290.298V364.826C182.271 365.117 182.359 365.4 182.518 365.642C182.677 365.884 182.9 366.074 183.16 366.189C183.836 366.544 184.585 366.729 185.344 366.729C186.103 366.729 186.852 366.544 187.528 366.189C187.788 366.074 188.011 365.884 188.17 365.642C188.329 365.4 188.417 365.117 188.424 364.826V290.298L297.408 225.694V296.336C297.417 296.628 297.508 296.911 297.67 297.151C297.831 297.392 298.057 297.579 298.32 297.691C298.996 298.046 299.745 298.231 300.504 298.231C301.263 298.231 302.012 298.046 302.688 297.691C302.949 297.576 303.172 297.386 303.331 297.145C303.49 296.903 303.578 296.619 303.584 296.328V206.867L230.248 163.381Z" fill="#455A64"/>
<path d="M187.528 366.206C186.852 366.561 186.103 366.746 185.344 366.746C184.585 366.746 183.836 366.561 183.16 366.206C181.952 365.491 181.952 364.333 183.16 363.618C183.836 363.264 184.585 363.079 185.344 363.079C186.103 363.079 186.852 363.264 187.528 363.618C188.736 364.333 188.736 365.491 187.528 366.206Z" fill="#455A64"/>
<path d="M188.44 288.483H182.264V364.842H188.44V288.483Z" fill="#37474F"/>
<path d="M115.096 324.387C116.801 324.387 118.184 323.567 118.184 322.556C118.184 321.544 116.801 320.724 115.096 320.724C113.391 320.724 112.008 321.544 112.008 322.556C112.008 323.567 113.391 324.387 115.096 324.387Z" fill="#455A64"/>
<path d="M118.184 246.131H112.008V322.49H118.184V246.131Z" fill="#263238"/>
<path d="M302.688 297.691C302.012 298.046 301.263 298.231 300.504 298.231C299.745 298.231 298.996 298.046 298.32 297.691C297.112 296.977 297.112 295.818 298.32 295.104C298.996 294.749 299.745 294.564 300.504 294.564C301.263 294.564 302.012 294.749 302.688 295.104C303.896 295.827 303.896 296.985 302.688 297.691Z" fill="#455A64"/>
<path d="M303.6 219.977H297.424V296.336H303.6V219.977Z" fill="#37474F"/>
<path d="M227.2 239.913C226.592 240.229 225.921 240.393 225.24 240.393C224.559 240.393 223.887 240.229 223.28 239.913C222.2 239.272 222.2 238.27 223.28 237.596C223.886 237.276 224.558 237.109 225.24 237.109C225.922 237.109 226.594 237.276 227.2 237.596C228.248 238.237 228.248 239.272 227.2 239.913Z" fill="#455A64"/>
<path d="M227.984 174.971H222.44V238.697H227.984V174.971Z" fill="#455A64"/>
<path d="M112 233.481V248.669L185.352 292.155V276.959L112 233.481Z" fill="#263238"/>
<path d="M303.6 206.867L185.352 276.959V292.155L303.6 222.055V206.867Z" fill="#37474F"/>
<path d="M230.248 163.381L112 233.481L185.352 276.959L303.6 206.867L230.248 163.381Z" fill="#455A64"/>
<path d="M170.928 210.687L197.824 226.63L242.536 200.074L215.648 183.81L170.928 210.687Z" fill="#EBEBEB"/>
<path d="M194.928 206.144L205.016 200.164L198.696 196.418L188.608 202.398L194.928 206.144Z" fill="#E0E0E0"/>
<path d="M198.968 222.646L185.376 214.432L211.936 197.922L198.968 222.646Z" fill="#E0E0E0"/>
<path d="M206.576 171.423L217.336 176.606C220.551 177.439 223.72 178.445 226.832 179.62C226.832 179.62 234.32 182.758 234.664 184.82C235.008 186.882 229.064 191.851 223.808 189.436C222.435 188.681 220.964 188.127 219.44 187.794C218.04 187.637 213.84 186.972 210.84 184.007L198.288 180.655C198.288 180.655 197.664 172.704 206.576 171.423Z" fill="#FFA8A7"/>
<path d="M213.544 186.8C214.784 188.171 218.344 191.629 219.144 192.632C219.944 193.634 221.752 191.063 218.544 187.227C215.767 186.183 213.155 184.724 210.792 182.898C211.611 184.269 212.531 185.573 213.544 186.8Z" fill="#FFA8A7"/>
<path d="M182.896 120.93H170.128V136.8H182.896V120.93Z" fill="#FFA8A7"/>
<path d="M182.904 136.8C180.3 135.802 177.92 134.272 175.908 132.302C173.896 130.333 172.295 127.964 171.2 125.341V120.93H182.936L182.904 136.8Z" fill="#F28F8F"/>
<path d="M187.2 99.9756C187.2 99.9756 198.816 101.413 196.152 121.792C194.92 131.214 192.464 135.978 185.392 135.173C177.392 134.253 166.296 127.863 168.016 111.714C169.736 95.5646 187.2 99.9756 187.2 99.9756Z" fill="#FFA8A7"/>
<path d="M187.848 118.145L187.432 125.185L191.52 124.175L187.848 118.145Z" fill="#F28F8F"/>
<path d="M181.768 117.513C181.751 117.797 181.817 118.079 181.956 118.325C182.096 118.571 182.303 118.768 182.552 118.893C182.801 119.018 183.081 119.063 183.355 119.025C183.63 118.986 183.887 118.865 184.094 118.676C184.301 118.488 184.449 118.24 184.52 117.965C184.59 117.69 184.579 117.399 184.488 117.131C184.398 116.862 184.232 116.627 184.011 116.455C183.79 116.283 183.525 116.183 183.248 116.166C182.878 116.143 182.514 116.272 182.237 116.525C181.959 116.778 181.791 117.133 181.768 117.513Z" fill="#263238"/>
<path d="M191.008 117.094C190.991 117.378 191.057 117.66 191.196 117.905C191.335 118.151 191.542 118.348 191.791 118.473C192.039 118.598 192.318 118.644 192.593 118.606C192.867 118.568 193.124 118.447 193.331 118.26C193.539 118.072 193.687 117.825 193.759 117.55C193.83 117.276 193.82 116.986 193.73 116.717C193.641 116.448 193.476 116.213 193.256 116.04C193.037 115.867 192.772 115.765 192.496 115.747C192.312 115.735 192.128 115.76 191.953 115.821C191.779 115.882 191.618 115.978 191.48 116.103C191.341 116.228 191.228 116.38 191.148 116.55C191.067 116.72 191.019 116.905 191.008 117.094Z" fill="#263238"/>
<path d="M194.288 114.3L191.656 112.461C191.656 112.461 192.768 111.41 193.776 112.149C194.062 112.413 194.265 112.76 194.356 113.143C194.447 113.527 194.424 113.93 194.288 114.3Z" fill="#263238"/>
<path d="M182.736 113.981L179.896 115.442C179.896 115.442 179.544 113.931 180.656 113.398C181.019 113.268 181.413 113.254 181.784 113.358C182.155 113.462 182.487 113.679 182.736 113.981Z" fill="#263238"/>
<path d="M187.632 128.043C186.033 128.059 184.475 127.524 183.208 126.524C183.208 126.524 182.76 128.939 184.712 129.522C186.664 130.105 187.632 128.043 187.632 128.043Z" fill="#F28F8F"/>
<path d="M169.992 117.981C169.992 117.981 171.776 121.801 172.88 121.669C173.984 121.538 172.88 107.04 175.168 106.949C177.456 106.859 188.256 112.363 197.8 105.257C201.472 102.53 202.2 95.5646 200 96.2217C197.8 96.8789 194.832 98.8585 190.824 98.5792C186.816 98.2999 172.784 91.6136 169.304 101.043C169.304 101.043 161.544 100.395 164.456 116.215C165.184 120.15 167.472 129.892 170.128 130.853L169.992 117.981Z" fill="#263238"/>
<path d="M170.624 121.464C170.668 120.269 170.452 119.079 169.992 117.981C169.762 117.305 169.345 116.712 168.792 116.274C168.24 115.837 167.575 115.574 166.88 115.517C163.296 115.418 162.808 118.967 162.88 120.224C163.008 123.509 165.624 127.123 170.488 127.263L170.624 121.464Z" fill="#FFA8A7"/>
<path d="M171.728 192.476L180.88 199.942C182.445 200.094 183.996 200.369 185.52 200.764C187.272 201.298 191.864 203.031 193.08 203.302C194.296 203.573 192.728 205.766 189.544 204.945C189.544 204.945 196.216 209.635 196.128 211.721C196.04 213.808 189.192 217.373 184.568 213.874C183.376 212.851 182.055 212 180.64 211.344C179.296 210.892 175.352 209.323 173.008 205.774L165.008 201.495C165.008 201.495 162.752 191.794 171.728 192.476Z" fill="#FFA8A7"/>
<path d="M161.744 140.973C161.744 140.973 167.08 145.219 163.8 158.42C160.52 171.62 158.768 182.996 158.768 182.996L171.728 192.476C169.954 193.273 168.406 194.521 167.231 196.102C166.055 197.682 165.29 199.544 165.008 201.511C165.008 201.511 144.576 193.297 144.16 187.966C143.744 182.635 148.424 159.75 149.136 155.536C149.848 151.323 153.48 142.969 161.744 140.973Z" fill="#FFA8A7"/>
<path d="M158.768 182.996C157.152 182.671 155.489 182.688 153.88 183.045C155.414 182.191 157.135 181.752 158.88 181.773L158.768 182.996Z" fill="#F28F8F"/>
<path d="M248.8 169.657L244.12 201.076C244.127 201.094 244.127 201.115 244.12 201.133L197.6 228.79C197.588 228.796 197.576 228.799 197.563 228.798C197.55 228.797 197.537 228.793 197.527 228.785C197.516 228.778 197.507 228.767 197.502 228.755C197.497 228.743 197.495 228.73 197.496 228.717L202.032 198.242C202.128 197.592 202.361 196.972 202.715 196.424C203.069 195.877 203.535 195.415 204.08 195.071L246.688 168.244C246.912 168.093 247.173 168.013 247.441 168.012C247.708 168.012 247.97 168.092 248.194 168.241C248.418 168.391 248.594 168.605 248.702 168.856C248.81 169.108 248.844 169.386 248.8 169.657Z" fill="#FAFAFA"/>
<path d="M197.6 228.79L172.8 214.005C172.228 213.664 171.754 213.175 171.424 212.587C171.094 211.999 170.92 211.332 170.92 210.654L197.816 226.597L197.6 228.79Z" fill="#E0E0E0"/>
<path d="M221.896 199.942C221.896 202.193 223.432 203.097 225.32 201.979C226.318 201.312 227.15 200.412 227.746 199.353C228.342 198.294 228.687 197.106 228.752 195.885C228.752 193.634 227.216 192.73 225.32 193.847C224.324 194.517 223.495 195.417 222.9 196.476C222.305 197.534 221.961 198.722 221.896 199.942Z" fill="#E0E0E0"/>
<path d="M170.536 105.652C170.536 105.652 168.424 102.448 169.736 101.413C171.048 100.378 172 103.672 170.536 105.652Z" fill="#263238"/>
<path d="M170.888 106.301C170.888 106.301 167.16 105.824 167.248 104.148C167.336 102.473 170.4 103.886 170.888 106.301Z" fill="#263238"/>
<path d="M170.128 136.8C170.128 136.8 172.872 144.193 179.192 143.273C185.512 142.353 182.904 136.8 182.904 136.8H170.128Z" fill="#FFA8A7"/>
<path d="M161.744 140.973C161.744 140.973 165.904 143.018 165.264 151.61C164.624 160.202 161.32 177.518 161.32 177.518C161.32 177.518 146.432 183.711 145.008 174.979C144.648 172.721 148.4 151.832 151.608 147.413C152.786 145.691 154.291 144.233 156.033 143.126C157.776 142.019 159.718 141.287 161.744 140.973Z" fill="#00D369"/>
<path opacity="0.2" d="M161.744 140.973C161.744 140.973 165.904 143.018 165.264 151.61C164.624 160.202 161.32 177.518 161.32 177.518C161.32 177.518 146.432 183.711 145.008 174.979C144.648 172.721 148.4 151.832 151.608 147.413C152.786 145.691 154.291 144.233 156.033 143.126C157.776 142.019 159.718 141.287 161.744 140.973Z" fill="black"/>
<path d="M206.104 291.12C206.663 291.989 207.519 292.611 208.504 292.861C209.408 293.009 207.584 290.602 209.76 289.633C211.936 288.664 216.92 287.341 217.368 289.263L217.92 291.662C218.44 293.929 219.495 296.031 220.992 297.782C222.445 299.587 224.099 301.211 225.92 302.62C228.768 304.501 233.448 309.06 227.44 312.945C221.432 316.83 214.056 313.545 212.608 309.134C211.16 304.723 209.632 303.441 208.864 302.71C207.246 301.544 206.092 299.817 205.616 297.847C205.226 295.896 204.959 293.92 204.816 291.933C204.786 291.532 204.862 291.13 205.037 290.77C205.212 290.41 205.478 290.105 205.808 289.888L206.104 291.12Z" fill="#455A64"/>
<path d="M227.472 312.929C221.464 316.806 214.088 313.528 212.64 309.117C211.192 304.706 209.664 303.425 208.896 302.694C207.54 301.687 206.498 300.297 205.896 298.693C205.896 298.808 205.896 298.94 205.896 299.055C206.128 302.874 208.408 303.77 209.176 304.509C209.944 305.248 211.208 306.448 212.656 310.867C214.104 315.286 221.72 318.03 227.72 314.152C230.64 312.271 231.032 310.226 230.344 308.403C230.488 309.889 229.752 311.458 227.472 312.929Z" fill="#263238"/>
<path d="M198.608 254.287L179.472 265.656L155.312 251.33L174.512 239.962C174.764 239.816 175.047 239.74 175.336 239.74C175.625 239.74 175.908 239.816 176.16 239.962L198.632 253.285C198.715 253.339 198.784 253.414 198.83 253.503C198.877 253.592 198.9 253.692 198.898 253.793C198.895 253.894 198.867 253.993 198.816 254.08C198.766 254.166 198.694 254.238 198.608 254.287Z" fill="#00D369"/>
<path opacity="0.7" d="M198.608 254.287L179.472 265.656L155.312 251.33L174.512 239.962C174.764 239.816 175.047 239.74 175.336 239.74C175.625 239.74 175.908 239.816 176.16 239.962L198.632 253.285C198.715 253.339 198.784 253.414 198.83 253.503C198.877 253.592 198.9 253.692 198.898 253.793C198.895 253.894 198.867 253.993 198.816 254.08C198.766 254.166 198.694 254.238 198.608 254.287Z" fill="black"/>
<path d="M197.28 253.877L179.472 264.432L156.984 251.109L174.832 240.529C175.063 240.388 175.327 240.313 175.596 240.313C175.865 240.313 176.129 240.388 176.36 240.529L197.28 252.924C197.361 252.972 197.429 253.042 197.476 253.125C197.523 253.209 197.548 253.304 197.548 253.4C197.548 253.497 197.523 253.592 197.476 253.675C197.429 253.759 197.361 253.828 197.28 253.877Z" fill="white"/>
<path d="M179.472 264.432V262.37L197.552 251.659V253.409L179.472 264.432Z" fill="white"/>
<path d="M179.472 264.432V262.37L156.984 249.047V251.109L179.472 264.432Z" fill="#E0E0E0"/>
<path d="M198.608 251.026L179.472 262.37L155.312 248.053L174.512 236.684C174.764 236.539 175.047 236.463 175.336 236.463C175.625 236.463 175.908 236.539 176.16 236.684L198.608 250.049C198.687 250.102 198.752 250.174 198.797 250.26C198.842 250.345 198.866 250.441 198.866 250.538C198.866 250.635 198.842 250.73 198.797 250.816C198.752 250.901 198.687 250.973 198.608 251.026Z" fill="#00D369"/>
<path opacity="0.5" d="M198.608 251.026L179.472 262.37L155.312 248.053L174.512 236.684C174.764 236.539 175.047 236.463 175.336 236.463C175.625 236.463 175.908 236.539 176.16 236.684L198.608 250.049C198.687 250.102 198.752 250.174 198.797 250.26C198.842 250.345 198.866 250.441 198.866 250.538C198.866 250.635 198.842 250.73 198.797 250.816C198.752 250.901 198.687 250.973 198.608 251.026Z" fill="black"/>
<path d="M176.968 264.153C176.913 264.181 176.853 264.196 176.792 264.196C176.731 264.196 176.671 264.181 176.616 264.153C176.546 264.114 176.488 264.058 176.447 263.988C176.407 263.919 176.385 263.839 176.384 263.758V261.877C176.388 261.457 176.497 261.044 176.7 260.679C176.903 260.314 177.193 260.008 177.544 259.791L177.616 259.742C177.649 259.723 177.686 259.714 177.724 259.714C177.762 259.715 177.799 259.726 177.831 259.746C177.864 259.766 177.89 259.794 177.909 259.828C177.927 259.862 177.936 259.9 177.936 259.939C177.936 260.041 177.976 260.139 178.046 260.212C178.117 260.284 178.212 260.325 178.312 260.325C178.412 260.325 178.507 260.284 178.578 260.212C178.648 260.139 178.688 260.041 178.688 259.939C178.69 259.763 178.645 259.591 178.559 259.439C178.473 259.287 178.349 259.162 178.2 259.076C178.054 258.986 177.887 258.938 177.716 258.938C177.545 258.938 177.378 258.986 177.232 259.076L177.16 259.117C176.695 259.401 176.309 259.803 176.042 260.286C175.774 260.768 175.633 261.314 175.632 261.869V263.734C175.632 263.954 175.69 264.171 175.8 264.36C175.91 264.549 176.067 264.705 176.256 264.81C176.428 264.904 176.621 264.952 176.816 264.949C177.052 264.951 177.284 264.88 177.48 264.744C177.552 264.694 177.603 264.618 177.624 264.531L176.968 264.153Z" fill="white"/>
<path d="M173.392 262.033C173.337 262.062 173.277 262.076 173.216 262.076C173.155 262.076 173.095 262.062 173.04 262.033C172.97 261.995 172.912 261.938 172.871 261.869C172.831 261.8 172.809 261.72 172.808 261.639V259.775C172.811 259.353 172.919 258.938 173.122 258.572C173.325 258.205 173.616 257.898 173.968 257.68H174.04C174.073 257.661 174.11 257.651 174.148 257.651C174.186 257.651 174.223 257.661 174.256 257.68C174.288 257.7 174.314 257.727 174.332 257.76C174.35 257.793 174.36 257.831 174.36 257.869C174.36 257.971 174.4 258.069 174.47 258.142C174.541 258.214 174.636 258.255 174.736 258.255C174.836 258.255 174.931 258.214 175.002 258.142C175.072 258.069 175.112 257.971 175.112 257.869C175.107 257.7 175.059 257.536 174.973 257.392C174.888 257.248 174.767 257.129 174.624 257.047C174.478 256.957 174.311 256.909 174.14 256.909C173.969 256.909 173.802 256.957 173.656 257.047L173.584 257.088C173.119 257.372 172.733 257.774 172.466 258.257C172.198 258.739 172.057 259.285 172.056 259.84V261.705C172.056 261.925 172.114 262.142 172.224 262.331C172.334 262.52 172.491 262.676 172.68 262.781C172.852 262.875 173.045 262.923 173.24 262.921C173.476 262.922 173.708 262.851 173.904 262.715C173.976 262.665 174.027 262.589 174.048 262.502L173.392 262.033Z" fill="white"/>
<path d="M169.816 259.906C169.761 259.932 169.701 259.946 169.64 259.946C169.579 259.946 169.519 259.932 169.464 259.906C169.394 259.868 169.336 259.811 169.295 259.741C169.255 259.672 169.233 259.593 169.232 259.512V257.647C169.235 257.225 169.343 256.811 169.546 256.444C169.749 256.077 170.04 255.77 170.392 255.552L170.464 255.511C170.497 255.493 170.534 255.483 170.572 255.483C170.61 255.483 170.647 255.493 170.68 255.511C170.712 255.531 170.738 255.559 170.756 255.592C170.774 255.625 170.784 255.662 170.784 255.7C170.784 255.803 170.824 255.901 170.894 255.973C170.965 256.046 171.06 256.086 171.16 256.086C171.26 256.086 171.355 256.046 171.426 255.973C171.496 255.901 171.536 255.803 171.536 255.7C171.531 255.532 171.483 255.368 171.397 255.224C171.312 255.08 171.191 254.961 171.048 254.879C170.902 254.788 170.735 254.74 170.564 254.74C170.393 254.74 170.226 254.788 170.08 254.879L170.008 254.92C169.543 255.203 169.157 255.606 168.89 256.088C168.622 256.571 168.481 257.116 168.48 257.672V259.536C168.48 259.757 168.538 259.973 168.648 260.162C168.758 260.352 168.915 260.507 169.104 260.612C169.276 260.706 169.469 260.755 169.664 260.752C169.9 260.754 170.132 260.682 170.328 260.547C170.4 260.496 170.451 260.42 170.472 260.333L169.816 259.906Z" fill="white"/>
<path d="M166.24 257.795C166.185 257.821 166.125 257.835 166.064 257.835C166.003 257.835 165.943 257.821 165.888 257.795C165.818 257.757 165.76 257.7 165.719 257.63C165.679 257.561 165.657 257.482 165.656 257.401V255.536C165.659 255.114 165.767 254.7 165.97 254.333C166.173 253.966 166.464 253.659 166.816 253.441L166.888 253.4C166.921 253.382 166.958 253.372 166.996 253.372C167.034 253.372 167.071 253.382 167.104 253.4C167.136 253.42 167.162 253.448 167.18 253.481C167.198 253.514 167.208 253.551 167.208 253.589C167.208 253.692 167.248 253.79 167.318 253.862C167.389 253.935 167.484 253.975 167.584 253.975C167.684 253.975 167.779 253.935 167.85 253.862C167.92 253.79 167.96 253.692 167.96 253.589C167.955 253.421 167.907 253.257 167.821 253.113C167.736 252.969 167.615 252.85 167.472 252.768C167.326 252.677 167.159 252.629 166.988 252.629C166.817 252.629 166.65 252.677 166.504 252.768L166.432 252.809C165.967 253.092 165.581 253.495 165.314 253.977C165.046 254.46 164.905 255.005 164.904 255.561V257.425C164.904 257.646 164.962 257.862 165.072 258.051C165.182 258.241 165.339 258.396 165.528 258.501C165.7 258.596 165.893 258.644 166.088 258.641C166.324 258.643 166.556 258.571 166.752 258.436C166.824 258.385 166.875 258.309 166.896 258.222L166.24 257.795Z" fill="white"/>
<path d="M162.664 255.676C162.609 255.702 162.549 255.716 162.488 255.716C162.427 255.716 162.367 255.702 162.312 255.676C162.242 255.637 162.184 255.581 162.143 255.511C162.103 255.442 162.081 255.362 162.08 255.281V253.417C162.083 252.995 162.191 252.581 162.394 252.214C162.597 251.847 162.888 251.54 163.24 251.322H163.312C163.345 251.303 163.382 251.294 163.42 251.294C163.458 251.294 163.495 251.303 163.528 251.322C163.56 251.342 163.586 251.37 163.604 251.403C163.622 251.436 163.632 251.473 163.632 251.511C163.632 251.613 163.672 251.712 163.742 251.784C163.813 251.856 163.908 251.897 164.008 251.897C164.108 251.897 164.203 251.856 164.274 251.784C164.344 251.712 164.384 251.613 164.384 251.511C164.379 251.343 164.331 251.178 164.245 251.034C164.16 250.89 164.039 250.772 163.896 250.69C163.75 250.599 163.583 250.551 163.412 250.551C163.241 250.551 163.074 250.599 162.928 250.69L162.856 250.731C162.391 251.014 162.005 251.417 161.738 251.899C161.47 252.381 161.329 252.927 161.328 253.482V255.347C161.328 255.567 161.386 255.784 161.496 255.973C161.606 256.163 161.763 256.318 161.952 256.423C162.126 256.514 162.317 256.561 162.512 256.563C162.748 256.564 162.98 256.493 163.176 256.357C163.248 256.307 163.299 256.231 163.32 256.144L162.664 255.676Z" fill="white"/>
<path d="M159.088 253.556C159.033 253.583 158.973 253.596 158.912 253.596C158.851 253.596 158.791 253.583 158.736 253.556C158.666 253.518 158.608 253.461 158.567 253.392C158.527 253.323 158.505 253.243 158.504 253.162V251.281C158.507 250.859 158.615 250.445 158.818 250.078C159.021 249.711 159.312 249.404 159.664 249.186L159.736 249.145C159.769 249.127 159.806 249.117 159.844 249.117C159.882 249.117 159.919 249.127 159.952 249.145C159.985 249.164 160.012 249.191 160.03 249.225C160.049 249.258 160.058 249.296 160.056 249.334C160.056 249.437 160.096 249.535 160.166 249.607C160.237 249.68 160.332 249.72 160.432 249.72C160.532 249.72 160.627 249.68 160.698 249.607C160.768 249.535 160.808 249.437 160.808 249.334C160.8 249.164 160.749 248.998 160.66 248.853C160.572 248.708 160.449 248.589 160.303 248.506C160.157 248.424 159.993 248.381 159.827 248.383C159.66 248.384 159.497 248.429 159.352 248.513L159.28 248.562C158.815 248.846 158.429 249.248 158.162 249.731C157.894 250.213 157.753 250.759 157.752 251.314V253.179C157.752 253.399 157.81 253.615 157.92 253.805C158.03 253.994 158.187 254.15 158.376 254.255C158.55 254.345 158.741 254.393 158.936 254.394C159.172 254.396 159.404 254.324 159.6 254.189C159.672 254.138 159.723 254.062 159.744 253.975L159.088 253.556Z" fill="white"/>
<path d="M201.072 245.901L180.384 258.165L153.456 242.204L174.152 229.941L201.072 245.901Z" fill="#E6E6E6"/>
<path d="M202.264 245.498L180.648 255.947L155.112 237.719L176.736 227.279L202.264 245.498Z" fill="#FAFAFA"/>
<path d="M154 212.88H136.44L138.04 231.961C138.144 232.566 138.389 233.136 138.754 233.622C139.119 234.108 139.593 234.497 140.136 234.754C141.717 235.58 143.466 236.011 145.24 236.011C147.014 236.011 148.763 235.58 150.344 234.754C150.886 234.495 151.359 234.106 151.724 233.62C152.089 233.134 152.334 232.565 152.44 231.961L154 212.88Z" fill="#00D369"/>
<path d="M155.12 211.836V210.325H154.776C154.208 209.201 153.317 208.283 152.224 207.696C148.36 205.405 142.088 205.405 138.224 207.696C137.129 208.28 136.237 209.199 135.672 210.325H135.32V211.853C135.32 213.348 136.288 214.851 138.224 216.001C142.088 218.293 148.36 218.293 152.224 216.001C154.16 214.851 155.128 213.34 155.12 211.836Z" fill="#E0E0E0"/>
<path d="M152.224 214.564C148.36 216.855 142.088 216.855 138.224 214.564C134.36 212.272 134.352 208.559 138.224 206.267C142.096 203.975 148.36 203.967 152.224 206.267C156.088 208.567 156.088 212.264 152.224 214.564Z" fill="#EBEBEB"/>
<path d="M153.16 209.799V208.592H152.88C152.425 207.691 151.709 206.957 150.832 206.489C149.097 205.585 147.178 205.114 145.232 205.114C143.286 205.114 141.367 205.585 139.632 206.489C138.752 206.953 138.036 207.689 137.584 208.592H137.304V209.799C137.304 211.007 138.104 212.214 139.632 213.126C141.367 214.03 143.286 214.501 145.232 214.501C147.178 214.501 149.097 214.03 150.832 213.126C152.384 212.198 153.16 210.99 153.16 209.799Z" fill="#E0E0E0"/>
<path d="M150.832 211.968C149.097 212.872 147.178 213.343 145.232 213.343C143.286 213.343 141.367 212.872 139.632 211.968C136.528 210.136 136.528 207.154 139.632 205.323C141.367 204.418 143.286 203.947 145.232 203.947C147.178 203.947 149.097 204.418 150.832 205.323C153.928 207.154 153.928 210.136 150.832 211.968Z" fill="#F5F5F5"/>
<path d="M149.536 210.999C148.198 211.695 146.72 212.058 145.22 212.058C143.72 212.058 142.242 211.695 140.904 210.999C138.592 209.635 138.504 207.45 140.664 206.07C140.74 206.012 140.82 205.96 140.904 205.914C141.428 205.608 141.987 205.371 142.568 205.208C144.894 204.534 147.383 204.786 149.536 205.914C151.928 207.335 151.928 209.586 149.536 210.999Z" fill="#F0F0F0"/>
<path d="M140.904 206.612C142.242 205.912 143.722 205.547 145.224 205.547C146.726 205.547 148.206 205.912 149.544 206.612C149.977 206.82 150.359 207.125 150.662 207.505C150.966 207.884 151.182 208.329 151.296 208.805C151.48 207.762 150.888 206.678 149.544 205.881C148.204 205.188 146.724 204.827 145.224 204.827C143.724 204.827 142.244 205.188 140.904 205.881C139.552 206.703 138.968 207.762 139.144 208.805C139.259 208.328 139.477 207.883 139.781 207.503C140.086 207.124 140.469 206.819 140.904 206.612Z" fill="#E0E0E0"/>
<path d="M144.168 206.851L142.4 208.009L140.672 206.736V206.037C140.748 205.979 140.828 205.927 140.912 205.881C141.436 205.575 141.995 205.338 142.576 205.175V205.692L144.168 206.851Z" fill="#E0E0E0"/>
<path d="M352.688 94.8006L253.104 35.7241C252.685 35.4065 252.177 35.2352 251.656 35.2352C251.135 35.2352 250.627 35.4065 250.208 35.7241L246.76 38.1883L249.112 41.1783V123.608C249.112 126.631 250.904 130.179 253.112 131.444L351.712 189.896L351.896 193.108L355.528 190.553C355.945 190.151 356.267 189.656 356.469 189.107C356.671 188.557 356.749 187.968 356.696 187.383V102.596C356.688 99.573 354.896 96.0655 352.688 94.8006Z" fill="#00D369"/>
<path opacity="0.3" d="M352.688 94.8006L253.104 35.7241C252.685 35.4065 252.177 35.2352 251.656 35.2352C251.135 35.2352 250.627 35.4065 250.208 35.7241L246.76 38.1883L249.112 41.1783V123.608C249.112 126.631 250.904 130.179 253.112 131.444L351.712 189.896L351.896 193.108L355.528 190.553C355.945 190.151 356.267 189.656 356.469 189.107C356.671 188.557 356.749 187.968 356.696 187.383V102.596C356.688 99.573 354.896 96.0655 352.688 94.8006Z" fill="black"/>
<path d="M349.296 192.878L249.712 133.843C247.512 132.537 245.712 129.029 245.712 126.006V41.2195C245.712 38.2049 247.504 36.8167 249.712 38.1227L349.296 97.1581C351.504 98.4642 353.296 101.972 353.296 104.994V189.773C353.296 192.796 351.504 194.192 349.296 192.878Z" fill="#00D369"/>
<path d="M349.296 192.878L249.712 133.843C247.512 132.537 245.712 129.029 245.712 126.006V41.2195C245.712 38.2049 247.504 36.8167 249.712 38.1227L349.296 97.1581C351.504 98.4642 353.296 101.972 353.296 104.994V189.773C353.296 192.796 351.504 194.192 349.296 192.878Z" fill="#00D369"/>
<path d="M349.296 97.1581L249.712 38.1227C247.512 36.8167 245.712 38.2049 245.712 41.2195V45.3266L353.288 109.093V104.986C353.296 101.972 351.504 98.4642 349.296 97.1581Z" fill="#455A64"/>
<path d="M248.128 38.4513C248.548 38.4716 248.955 38.6016 249.312 38.8292L348.896 97.8645C350.848 99.0228 352.496 102.284 352.496 104.994V189.773C352.496 191.416 351.864 192.55 350.896 192.55C350.473 192.529 350.062 192.396 349.704 192.163L250.112 133.128C248.168 131.978 246.52 128.709 246.52 126.006V41.2195C246.52 39.5356 247.152 38.4513 248.12 38.4513H248.128ZM248.12 37.6299C246.704 37.6299 245.72 38.9688 245.72 41.2195V126.015C245.72 129.037 247.512 132.545 249.72 133.851L349.296 192.878C349.777 193.185 350.33 193.355 350.896 193.371C352.312 193.371 353.296 192.024 353.296 189.773V104.994C353.296 101.972 351.504 98.4231 349.296 97.1581L249.712 38.1227C249.232 37.8137 248.679 37.6434 248.112 37.6299H248.12Z" fill="#00D369"/>
<path d="M291.888 82.4793C291.739 82.4823 291.592 82.4424 291.464 82.3643L253.552 59.9231C253.374 59.7996 253.249 59.6115 253.201 59.3966C253.153 59.1818 253.186 58.9563 253.293 58.7656C253.401 58.5749 253.575 58.4331 253.78 58.369C253.986 58.3048 254.207 58.3231 254.4 58.4199L292.312 80.894C292.483 80.9852 292.619 81.1335 292.697 81.3145C292.775 81.4956 292.79 81.6985 292.741 81.8898C292.692 82.0812 292.58 82.2495 292.425 82.3671C292.27 82.4847 292.081 82.5446 291.888 82.5368V82.4793Z" fill="white"/>
<path d="M345.224 114.137C345.074 114.137 344.927 114.095 344.8 114.014L316.72 97.3716C316.525 97.2562 316.382 97.0658 316.324 96.8424C316.265 96.6191 316.296 96.381 316.408 96.1806C316.52 95.9801 316.706 95.8338 316.923 95.7737C317.141 95.7136 317.373 95.7447 317.568 95.8602L345.648 112.51C345.819 112.602 345.955 112.75 346.033 112.931C346.111 113.112 346.126 113.315 346.077 113.506C346.028 113.698 345.916 113.866 345.761 113.984C345.606 114.101 345.417 114.161 345.224 114.153V114.137Z" fill="white"/>
<path d="M311.056 93.8806C310.908 93.8786 310.762 93.8391 310.632 93.7656L299.2 86.9971C299.096 86.9446 299.003 86.8706 298.927 86.7796C298.852 86.6887 298.795 86.5828 298.762 86.4685C298.728 86.3542 298.717 86.234 298.73 86.1153C298.744 85.9966 298.781 85.882 298.839 85.7786C298.897 85.6753 298.976 85.5853 299.069 85.5144C299.163 85.4435 299.27 85.3931 299.383 85.3664C299.497 85.3397 299.614 85.3372 299.729 85.3592C299.843 85.3811 299.952 85.427 300.048 85.4939L311.456 92.2542C311.627 92.3454 311.763 92.4937 311.841 92.6748C311.919 92.8558 311.934 93.0587 311.885 93.2501C311.836 93.4414 311.724 93.6098 311.569 93.7274C311.414 93.845 311.225 93.9048 311.032 93.897L311.056 93.8806Z" fill="white"/>
<path d="M291.888 137.03C291.739 137.029 291.594 136.989 291.464 136.915L253.552 114.441C253.374 114.317 253.249 114.129 253.201 113.914C253.153 113.699 253.186 113.474 253.293 113.283C253.401 113.092 253.575 112.951 253.78 112.887C253.986 112.822 254.207 112.841 254.4 112.938L292.312 135.403C292.506 135.52 292.647 135.711 292.704 135.934C292.761 136.158 292.73 136.395 292.616 136.594C292.546 136.729 292.441 136.842 292.312 136.918C292.184 136.995 292.037 137.034 291.888 137.03Z" fill="white"/>
<path d="M345.224 168.646C345.075 168.649 344.928 168.609 344.8 168.531L316.72 151.889C316.525 151.774 316.382 151.583 316.324 151.36C316.265 151.137 316.296 150.899 316.408 150.698C316.52 150.498 316.706 150.351 316.923 150.291C317.141 150.231 317.373 150.262 317.568 150.378L345.648 167.028C345.841 167.143 345.983 167.332 346.041 167.553C346.099 167.775 346.07 168.011 345.96 168.211C345.885 168.343 345.777 168.452 345.648 168.529C345.519 168.605 345.373 168.646 345.224 168.646Z" fill="white"/>
<path d="M311.056 148.39C310.907 148.393 310.76 148.353 310.632 148.275L299.2 141.515C299.096 141.462 299.003 141.388 298.927 141.297C298.852 141.206 298.795 141.1 298.762 140.986C298.728 140.872 298.717 140.752 298.73 140.633C298.744 140.514 298.781 140.4 298.839 140.296C298.897 140.193 298.976 140.103 299.069 140.032C299.163 139.961 299.27 139.911 299.383 139.884C299.497 139.857 299.614 139.855 299.729 139.877C299.843 139.899 299.952 139.945 300.048 140.012L311.456 146.772C311.649 146.887 311.791 147.076 311.849 147.297C311.907 147.519 311.878 147.755 311.768 147.955C311.695 148.083 311.591 148.191 311.467 148.267C311.342 148.343 311.201 148.385 311.056 148.39Z" fill="white"/>
<path d="M291.888 149.836C291.739 149.839 291.592 149.799 291.464 149.721L253.552 127.255C253.357 127.139 253.214 126.949 253.156 126.726C253.097 126.502 253.128 126.264 253.24 126.064C253.352 125.863 253.538 125.717 253.755 125.657C253.973 125.597 254.205 125.628 254.4 125.743L292.312 148.193C292.483 148.284 292.619 148.432 292.697 148.613C292.775 148.794 292.79 148.997 292.741 149.189C292.692 149.38 292.58 149.548 292.425 149.666C292.27 149.784 292.081 149.843 291.888 149.836Z" fill="white"/>
<path d="M333.272 174.38C333.123 174.383 332.976 174.343 332.848 174.265L316.72 164.703C316.616 164.651 316.523 164.577 316.447 164.486C316.372 164.395 316.315 164.289 316.282 164.175C316.248 164.06 316.237 163.94 316.25 163.821C316.264 163.703 316.301 163.588 316.359 163.485C316.417 163.381 316.496 163.291 316.589 163.221C316.683 163.15 316.79 163.099 316.903 163.073C317.017 163.046 317.134 163.043 317.249 163.065C317.363 163.087 317.472 163.133 317.568 163.2L333.696 172.761C333.793 172.818 333.877 172.893 333.945 172.983C334.013 173.073 334.063 173.176 334.092 173.286C334.121 173.396 334.129 173.511 334.114 173.624C334.1 173.737 334.064 173.846 334.008 173.944C333.933 174.076 333.825 174.186 333.696 174.262C333.567 174.339 333.421 174.379 333.272 174.38Z" fill="white"/>
<path d="M311.056 161.212C310.908 161.21 310.762 161.171 310.632 161.097L299.2 154.337C299.005 154.222 298.862 154.031 298.804 153.808C298.745 153.585 298.776 153.346 298.888 153.146C299 152.946 299.186 152.799 299.403 152.739C299.621 152.679 299.853 152.71 300.048 152.826L311.456 159.586C311.627 159.677 311.763 159.825 311.841 160.006C311.919 160.188 311.934 160.39 311.885 160.582C311.836 160.773 311.724 160.941 311.569 161.059C311.414 161.177 311.225 161.237 311.032 161.229L311.056 161.212Z" fill="white"/>
<path d="M272.984 78.0847C272.834 78.0852 272.687 78.0425 272.56 77.9615L253.552 66.6999C253.405 66.5655 253.309 66.383 253.279 66.1836C253.248 65.9841 253.287 65.7801 253.387 65.6065C253.487 65.4328 253.643 65.3003 253.828 65.2315C254.012 65.1628 254.215 65.1621 254.4 65.2295L273.408 76.4912C273.602 76.6077 273.743 76.7987 273.8 77.0221C273.857 77.2454 273.826 77.4829 273.712 77.6822C273.638 77.811 273.531 77.9166 273.403 77.9875C273.274 78.0585 273.13 78.0921 272.984 78.0847Z" fill="white"/>
<path d="M327.728 110.539C327.58 110.537 327.434 110.498 327.304 110.424L299.2 93.7739C299.096 93.7213 299.003 93.6473 298.927 93.5564C298.852 93.4654 298.795 93.3595 298.762 93.2452C298.728 93.1309 298.717 93.0107 298.73 92.892C298.744 92.7733 298.781 92.6588 298.839 92.5554C298.897 92.452 298.976 92.3621 299.069 92.2911C299.163 92.2202 299.27 92.1698 299.383 92.1431C299.497 92.1164 299.614 92.114 299.729 92.1359C299.843 92.1578 299.952 92.2037 300.048 92.2707L328.128 108.913C328.299 109.004 328.435 109.152 328.513 109.333C328.591 109.514 328.606 109.717 328.557 109.908C328.508 110.1 328.396 110.268 328.241 110.386C328.086 110.503 327.897 110.563 327.704 110.555L327.728 110.539Z" fill="white"/>
<path d="M292.152 89.4449C292.003 89.4479 291.856 89.408 291.728 89.3299L280.32 82.5696C280.125 82.4542 279.982 82.2638 279.924 82.0404C279.865 81.8171 279.896 81.579 280.008 81.3786C280.121 81.1781 280.306 81.0318 280.523 80.9717C280.741 80.9116 280.973 80.9427 281.168 81.0582L292.576 87.8185C292.77 87.9351 292.911 88.126 292.968 88.3494C293.025 88.5727 292.994 88.8102 292.88 89.0095C292.81 89.1445 292.705 89.2567 292.576 89.3336C292.448 89.4105 292.301 89.449 292.152 89.4449Z" fill="white"/>
<path d="M291.888 96.0656C291.738 96.066 291.591 96.0234 291.464 95.9423L253.552 73.4437C253.4 73.3109 253.298 73.1272 253.265 72.9249C253.231 72.7226 253.269 72.5147 253.37 72.3379C253.471 72.1611 253.63 72.0268 253.819 71.9586C254.007 71.8904 254.213 71.8927 254.4 71.9651L292.312 94.4391C292.506 94.5557 292.647 94.7467 292.704 94.97C292.761 95.1934 292.73 95.4309 292.616 95.6302C292.546 95.7651 292.441 95.8773 292.312 95.9542C292.184 96.0312 292.037 96.0697 291.888 96.0656Z" fill="white"/>
<path d="M324.624 115.467C324.475 115.47 324.328 115.431 324.2 115.352L316.72 110.917C316.616 110.864 316.523 110.79 316.447 110.699C316.372 110.608 316.315 110.502 316.282 110.388C316.248 110.274 316.237 110.154 316.25 110.035C316.264 109.916 316.301 109.802 316.359 109.698C316.417 109.595 316.496 109.505 316.589 109.434C316.683 109.363 316.79 109.313 316.903 109.286C317.017 109.259 317.134 109.257 317.249 109.279C317.363 109.301 317.472 109.347 317.568 109.414L325.048 113.849C325.241 113.964 325.383 114.153 325.441 114.375C325.499 114.596 325.47 114.833 325.36 115.032C325.285 115.164 325.177 115.274 325.048 115.35C324.919 115.426 324.773 115.467 324.624 115.467Z" fill="white"/>
<path d="M276.72 93.8478C276.572 93.8458 276.426 93.8063 276.296 93.7328L268.8 89.2972C268.703 89.24 268.619 89.1638 268.551 89.073C268.483 88.9822 268.433 88.8786 268.404 88.768C268.375 88.6574 268.367 88.542 268.382 88.4284C268.396 88.3149 268.432 88.2053 268.488 88.1061C268.544 88.0069 268.618 87.9198 268.706 87.85C268.795 87.7802 268.896 87.729 269.003 87.6992C269.111 87.6695 269.224 87.6618 269.334 87.6767C269.445 87.6915 269.551 87.7286 269.648 87.7857L277.128 92.2214C277.299 92.3126 277.435 92.4609 277.513 92.642C277.591 92.823 277.606 93.0259 277.557 93.2172C277.508 93.4086 277.396 93.577 277.241 93.6946C277.086 93.8122 276.897 93.872 276.704 93.8642L276.72 93.8478Z" fill="white"/>
<path d="M311.056 107.426C310.908 107.424 310.762 107.384 310.632 107.311L299.2 100.551C299.103 100.493 299.019 100.417 298.951 100.326C298.883 100.236 298.833 100.132 298.804 100.021C298.775 99.9108 298.767 99.7954 298.782 99.6819C298.796 99.5683 298.832 99.4588 298.888 99.3595C298.944 99.2603 299.018 99.1733 299.106 99.1035C299.195 99.0336 299.296 98.9824 299.403 98.9527C299.511 98.9229 299.623 98.9152 299.734 98.9301C299.845 98.9449 299.951 98.982 300.048 99.0392L311.456 105.799C311.627 105.891 311.763 106.039 311.841 106.22C311.919 106.401 311.934 106.604 311.885 106.795C311.836 106.987 311.724 107.155 311.569 107.273C311.414 107.39 311.225 107.45 311.032 107.442L311.056 107.426Z" fill="white"/>
<path d="M266.128 87.5639C265.979 87.5669 265.832 87.527 265.704 87.4489L253.552 80.245C253.374 80.1215 253.249 79.9334 253.201 79.7186C253.153 79.5037 253.186 79.2782 253.293 79.0875C253.401 78.8968 253.575 78.755 253.78 78.6909C253.986 78.6267 254.207 78.6449 254.4 78.7418L266.552 85.9457C266.732 86.0306 266.877 86.1779 266.961 86.3616C267.045 86.5454 267.064 86.7539 267.013 86.9502C266.962 87.1466 266.846 87.3183 266.684 87.4351C266.522 87.5519 266.325 87.6062 266.128 87.5885V87.5639Z" fill="white"/>
<path d="M292.152 103.015C292.003 103.018 291.856 102.978 291.728 102.9L280.32 96.1149C280.215 96.0624 280.123 95.9884 280.047 95.8974C279.972 95.8065 279.915 95.7006 279.882 95.5863C279.848 95.472 279.837 95.3518 279.85 95.2331C279.864 95.1144 279.901 94.9998 279.959 94.8964C280.017 94.7931 280.096 94.7031 280.189 94.6322C280.283 94.5613 280.39 94.5109 280.503 94.4842C280.617 94.4575 280.734 94.455 280.849 94.477C280.963 94.4989 281.072 94.5448 281.168 94.6117L292.576 101.372C292.747 101.463 292.883 101.612 292.961 101.793C293.039 101.974 293.054 102.177 293.005 102.368C292.956 102.559 292.844 102.728 292.689 102.845C292.534 102.963 292.345 103.023 292.152 103.015Z" fill="white"/>
<path d="M291.888 110.104C291.739 110.107 291.592 110.067 291.464 109.989L253.552 87.5146C253.374 87.391 253.249 87.2029 253.201 86.9881C253.153 86.7733 253.186 86.5477 253.293 86.357C253.401 86.1663 253.575 86.0246 253.78 85.9604C253.986 85.8963 254.207 85.9145 254.4 86.0114L292.312 108.477C292.506 108.594 292.647 108.785 292.704 109.008C292.761 109.231 292.73 109.469 292.616 109.668C292.546 109.803 292.441 109.915 292.312 109.992C292.184 110.069 292.037 110.108 291.888 110.104Z" fill="white"/>
<path d="M345.224 141.72C345.077 141.728 344.93 141.694 344.8 141.622L316.72 124.98C316.525 124.864 316.382 124.674 316.324 124.45C316.265 124.227 316.296 123.989 316.408 123.788C316.52 123.588 316.706 123.442 316.923 123.382C317.141 123.322 317.373 123.353 317.568 123.468L345.648 140.118C345.841 140.233 345.983 140.422 346.041 140.644C346.099 140.865 346.07 141.102 345.96 141.301C345.883 141.43 345.775 141.536 345.646 141.61C345.517 141.683 345.371 141.721 345.224 141.72Z" fill="white"/>
<path d="M311.056 121.464C310.907 121.467 310.76 121.427 310.632 121.349L299.2 114.589C299.096 114.536 299.003 114.462 298.927 114.371C298.852 114.28 298.795 114.174 298.762 114.06C298.728 113.946 298.717 113.825 298.73 113.707C298.744 113.588 298.781 113.473 298.839 113.37C298.897 113.267 298.976 113.177 299.069 113.106C299.163 113.035 299.27 112.985 299.383 112.958C299.497 112.931 299.614 112.929 299.729 112.951C299.843 112.973 299.952 113.018 300.048 113.085L311.456 119.846C311.65 119.962 311.791 120.153 311.85 120.376C311.908 120.598 311.879 120.836 311.768 121.037C311.693 121.163 311.589 121.268 311.464 121.342C311.34 121.417 311.2 121.458 311.056 121.464Z" fill="white"/>
<path d="M272.984 105.668C272.835 105.671 272.688 105.631 272.56 105.553L253.552 94.2913C253.357 94.1758 253.214 93.9855 253.156 93.7621C253.097 93.5387 253.128 93.3007 253.24 93.1002C253.352 92.8998 253.538 92.7535 253.755 92.6934C253.973 92.6333 254.205 92.6644 254.4 92.7799L273.408 104.05C273.579 104.141 273.715 104.289 273.793 104.47C273.871 104.651 273.886 104.854 273.837 105.046C273.788 105.237 273.676 105.405 273.521 105.523C273.366 105.641 273.177 105.7 272.984 105.693V105.668Z" fill="white"/>
<path d="M327.728 138.13C327.578 138.131 327.431 138.088 327.304 138.007L299.2 121.365C299.005 121.25 298.862 121.059 298.804 120.836C298.745 120.613 298.776 120.375 298.888 120.174C299 119.974 299.186 119.827 299.403 119.767C299.621 119.707 299.853 119.738 300.048 119.854L328.128 136.504C328.299 136.595 328.435 136.744 328.513 136.925C328.591 137.106 328.606 137.309 328.557 137.5C328.508 137.691 328.396 137.86 328.241 137.977C328.086 138.095 327.897 138.155 327.704 138.147L327.728 138.13Z" fill="white"/>
<path d="M292.152 117.036C292.004 117.034 291.858 116.995 291.728 116.921L280.32 110.153C280.215 110.1 280.123 110.026 280.047 109.935C279.972 109.844 279.915 109.739 279.882 109.624C279.848 109.51 279.837 109.39 279.85 109.271C279.864 109.152 279.901 109.038 279.959 108.934C280.017 108.831 280.096 108.741 280.189 108.67C280.283 108.599 280.39 108.549 280.503 108.522C280.617 108.495 280.734 108.493 280.849 108.515C280.963 108.537 281.072 108.583 281.168 108.65L292.576 115.41C292.77 115.527 292.911 115.717 292.968 115.941C293.025 116.164 292.994 116.402 292.88 116.601C292.81 116.736 292.705 116.848 292.576 116.925C292.448 117.002 292.301 117.041 292.152 117.036Z" fill="white"/>
<path d="M291.888 123.649C291.739 123.652 291.592 123.612 291.464 123.534L253.552 101.06C253.374 100.936 253.249 100.748 253.201 100.533C253.153 100.319 253.186 100.093 253.293 99.9023C253.401 99.7116 253.575 99.5699 253.78 99.5057C253.986 99.4416 254.207 99.4598 254.4 99.5567L292.312 122.031C292.483 122.122 292.619 122.27 292.697 122.451C292.775 122.632 292.79 122.835 292.741 123.027C292.692 123.218 292.58 123.386 292.425 123.504C292.27 123.621 292.081 123.681 291.888 123.674V123.649Z" fill="white"/>
<path d="M324.624 143.059C324.476 143.057 324.33 143.018 324.2 142.944L316.72 138.508C316.616 138.456 316.523 138.382 316.447 138.291C316.372 138.2 316.315 138.094 316.282 137.98C316.248 137.865 316.237 137.745 316.25 137.627C316.264 137.508 316.301 137.393 316.359 137.29C316.417 137.187 316.496 137.097 316.589 137.026C316.683 136.955 316.79 136.904 316.903 136.878C317.017 136.851 317.134 136.848 317.249 136.87C317.363 136.892 317.472 136.938 317.568 137.005L325.048 141.433C325.219 141.524 325.355 141.672 325.433 141.853C325.511 142.034 325.526 142.237 325.477 142.428C325.428 142.62 325.316 142.788 325.161 142.906C325.006 143.023 324.817 143.083 324.624 143.075V143.059Z" fill="white"/>
<path d="M276.72 121.439C276.57 121.44 276.423 121.397 276.296 121.316L268.8 116.889C268.605 116.773 268.462 116.583 268.404 116.359C268.345 116.136 268.376 115.898 268.488 115.698C268.6 115.497 268.786 115.351 269.003 115.291C269.221 115.231 269.453 115.262 269.648 115.377L277.128 119.813C277.299 119.904 277.435 120.052 277.513 120.233C277.591 120.414 277.606 120.617 277.557 120.809C277.508 121 277.396 121.168 277.241 121.286C277.086 121.404 276.897 121.463 276.704 121.456L276.72 121.439Z" fill="white"/>
<path d="M311.056 135.05C310.908 135.048 310.762 135.009 310.632 134.935L299.2 128.142C299.005 128.027 298.862 127.836 298.804 127.613C298.745 127.389 298.776 127.151 298.888 126.951C299 126.751 299.186 126.604 299.403 126.544C299.621 126.484 299.853 126.515 300.048 126.631L311.48 133.407C311.651 133.498 311.787 133.647 311.865 133.828C311.943 134.009 311.958 134.212 311.909 134.403C311.86 134.594 311.748 134.763 311.593 134.88C311.438 134.998 311.249 135.058 311.056 135.05Z" fill="white"/>
<path d="M266.128 115.155C265.979 115.158 265.832 115.119 265.704 115.04L253.552 107.837C253.354 107.721 253.208 107.529 253.147 107.304C253.087 107.078 253.116 106.837 253.228 106.633C253.34 106.429 253.527 106.28 253.747 106.218C253.967 106.155 254.202 106.185 254.4 106.3L266.552 113.496C266.723 113.587 266.859 113.736 266.937 113.917C267.015 114.098 267.03 114.301 266.981 114.492C266.932 114.683 266.82 114.852 266.665 114.969C266.51 115.087 266.321 115.147 266.128 115.139V115.155Z" fill="white"/>
<path d="M292.152 130.582C292.003 130.585 291.856 130.545 291.728 130.467L280.32 123.706C280.125 123.591 279.982 123.401 279.924 123.177C279.865 122.954 279.896 122.716 280.008 122.515C280.121 122.315 280.306 122.169 280.523 122.108C280.741 122.048 280.973 122.079 281.168 122.195L292.576 128.963C292.747 129.055 292.883 129.203 292.961 129.384C293.039 129.565 293.054 129.768 293.005 129.959C292.956 130.151 292.844 130.319 292.689 130.437C292.534 130.554 292.345 130.614 292.152 130.606V130.582Z" fill="white"/>
<path d="M276.72 134.418C276.571 134.421 276.424 134.381 276.296 134.303L268.816 129.867C268.712 129.814 268.619 129.74 268.543 129.65C268.468 129.559 268.411 129.453 268.378 129.338C268.344 129.224 268.333 129.104 268.346 128.985C268.36 128.866 268.397 128.752 268.455 128.649C268.513 128.545 268.592 128.455 268.685 128.384C268.779 128.313 268.886 128.263 268.999 128.236C269.113 128.21 269.23 128.207 269.345 128.229C269.459 128.251 269.568 128.297 269.664 128.364L277.144 132.799C277.324 132.884 277.469 133.032 277.553 133.215C277.637 133.399 277.656 133.608 277.605 133.804C277.554 134 277.438 134.172 277.276 134.289C277.114 134.406 276.917 134.46 276.72 134.442V134.418Z" fill="white"/>
<path d="M266.128 128.142C265.98 128.14 265.834 128.1 265.704 128.027L253.552 120.823C253.357 120.708 253.214 120.517 253.156 120.294C253.097 120.071 253.128 119.833 253.24 119.632C253.352 119.432 253.538 119.285 253.755 119.225C253.973 119.165 254.205 119.196 254.4 119.312L266.552 126.516C266.723 126.607 266.859 126.755 266.937 126.936C267.015 127.117 267.03 127.32 266.981 127.511C266.932 127.703 266.82 127.871 266.665 127.989C266.51 128.106 266.321 128.166 266.128 128.158V128.142Z" fill="white"/>
<path d="M292.152 143.568C292.004 143.566 291.858 143.527 291.728 143.453L280.32 136.693C280.125 136.578 279.982 136.387 279.924 136.164C279.865 135.94 279.896 135.702 280.008 135.502C280.121 135.302 280.306 135.155 280.523 135.095C280.741 135.035 280.973 135.066 281.168 135.182L292.576 141.942C292.77 142.058 292.911 142.249 292.968 142.473C293.025 142.696 292.994 142.934 292.88 143.133C292.81 143.268 292.705 143.38 292.576 143.457C292.448 143.534 292.301 143.572 292.152 143.568Z" fill="white"/>
<path d="M261.48 68.3755V99.8687C261.48 100.378 261.304 100.69 261.024 100.83L259.848 101.495V100.419L259.68 68.0387L261.216 67.2173C261.388 67.5781 261.478 67.9739 261.48 68.3755Z" fill="#263238"/>
<path d="M261.216 67.242L259.68 68.0634L222.488 45.6469L221.6 45.1212L222.824 44.4148H222.864C222.978 44.3523 223.107 44.3245 223.236 44.3347C223.365 44.3449 223.489 44.3926 223.592 44.4723L260.392 66.2317C260.757 66.478 261.044 66.8294 261.216 67.242Z" fill="#37474F"/>
<path d="M260.152 69.0574V100.345C260.169 100.513 260.145 100.682 260.084 100.838C260.023 100.994 259.925 101.132 259.8 101.241H259.728C259.617 101.287 259.497 101.303 259.378 101.289C259.259 101.275 259.146 101.23 259.048 101.158L222.488 79.5305C222.152 79.2845 221.877 78.9608 221.685 78.5855C221.493 78.2102 221.39 77.7939 221.384 77.3701V46.1316C221.367 45.9681 221.389 45.803 221.448 45.6501C221.506 45.4972 221.6 45.3609 221.72 45.2526C221.752 45.223 221.791 45.2006 221.832 45.1869C221.94 45.147 222.057 45.1344 222.171 45.1501C222.285 45.1658 222.394 45.2094 222.488 45.2773L259.048 66.8724C259.403 67.1103 259.681 67.4503 259.848 67.8499C260.038 68.2233 260.142 68.6363 260.152 69.0574Z" fill="#455A64"/>
<path d="M246.771 67.3788L245.325 66.5251L252.67 95.2047L254.116 96.0584L246.771 67.3788Z" fill="#FAFAFA"/>
<path d="M221.904 45.2197C222.023 45.2232 222.14 45.2601 222.24 45.3265L259.04 67.0859C259.364 67.306 259.619 67.6167 259.776 67.9812C259.945 68.3196 260.035 68.6935 260.04 69.0737V100.55C260.059 100.681 260.047 100.813 260.005 100.938C259.963 101.062 259.893 101.174 259.8 101.265H259.736C259.683 101.278 259.629 101.278 259.576 101.265C259.458 101.256 259.343 101.219 259.24 101.158L222.44 79.3907C222.135 79.1611 221.885 78.8624 221.71 78.5177C221.535 78.1729 221.44 77.7915 221.432 77.4029V46.0082C221.419 45.8764 221.434 45.7432 221.477 45.6182C221.52 45.4932 221.589 45.3795 221.68 45.2854H221.752C221.799 45.2739 221.849 45.2739 221.896 45.2854L221.904 45.2197ZM221.896 45.0718C221.819 45.0715 221.742 45.0883 221.672 45.1211L221.56 45.1868C221.441 45.2979 221.35 45.4361 221.293 45.5902C221.236 45.7443 221.215 45.91 221.232 46.0739V77.4768C221.239 77.9026 221.343 78.3208 221.535 78.6986C221.726 79.0763 222 79.4032 222.336 79.6536L259.136 101.413C259.266 101.495 259.415 101.54 259.568 101.544C259.653 101.545 259.737 101.529 259.816 101.495L259.888 101.454C260.014 101.344 260.112 101.204 260.173 101.047C260.234 100.89 260.257 100.719 260.24 100.55V69.0737C260.23 68.6624 260.132 68.2585 259.952 67.8908C259.78 67.492 259.503 67.1505 259.152 66.9051L222.352 45.1457C222.22 45.061 222.068 45.0129 221.912 45.0061L221.896 45.0718Z" fill="#37474F"/>
<path d="M255.568 46.0329C255.568 46.9283 254.952 47.2897 254.2 46.8544C253.796 46.5862 253.461 46.2224 253.223 45.7935C252.985 45.3647 252.851 44.8833 252.832 44.3901C252.832 43.4948 253.44 43.1333 254.2 43.5687C254.601 43.8398 254.934 44.2043 255.172 44.6325C255.409 45.0608 255.545 45.5406 255.568 46.0329Z" fill="white"/>
<path d="M260.656 49.2528C260.656 50.1482 260.04 50.5178 259.28 50.0743C258.878 49.8046 258.544 49.4404 258.306 49.0119C258.068 48.5834 257.933 48.1028 257.912 47.61C257.912 46.7147 258.528 46.345 259.28 46.7886C259.684 47.0573 260.019 47.4211 260.259 47.8497C260.498 48.2783 260.634 48.7593 260.656 49.2528Z" fill="white"/>
<path d="M265.736 52.4811C265.736 53.3764 265.128 53.7378 264.368 53.3025C263.967 53.0314 263.634 52.6668 263.396 52.2386C263.159 51.8104 263.023 51.3306 263 50.8382C263 49.9429 263.616 49.5815 264.368 50.0168C264.772 50.285 265.107 50.6488 265.345 51.0776C265.583 51.5065 265.717 51.9878 265.736 52.4811Z" fill="white"/>
</svg>
