<svg width="50" height="59" viewBox="0 0 50 59" fill="none" xmlns="http://www.w3.org/2000/svg">
<path d="M4.55023 52.7133L0 0.309875H50L45.4448 52.705L24.9693 58.5336L4.55023 52.7133Z" fill="#E44D26"/>
<path d="M25 54.0785L41.545 49.3685L45.438 4.59473H25V54.0785Z" fill="#F16529"/>
<path d="M25 24.0304H16.7173L16.1451 17.4491H25V11.0219H9.30408L9.45407 12.7462L10.9925 30.4573H25V24.0304ZM25 40.722L24.9725 40.7298L18.0013 38.7968L17.5557 33.6712H11.2723L12.1493 43.7626L24.9713 47.4173L25 47.409V40.722Z" fill="white"/>
<path d="M24.9784 24.0304V30.4573H32.6864L31.9597 38.7929L24.9784 40.7274V47.4139L37.8107 43.7626L37.9046 42.6764L39.3757 25.7564L39.5284 24.0304H37.8418H24.9784ZM24.9784 11.0219V17.4491H40.0981L40.2234 16.0043L40.5087 12.7462L40.6584 11.0219H24.9784Z" fill="white"/>
</svg>
