<svg width="100" height="100" viewBox="0 0 100 100" fill="none" xmlns="http://www.w3.org/2000/svg">
<path d="M25.3574 99.6463C19.4103 99.3759 16.1797 98.3862 14.031 97.5481C11.1838 96.4395 9.15386 95.1199 7.01697 92.986C4.88008 90.8521 3.55752 88.8222 2.4549 85.975C1.61679 83.8262 0.627099 80.5956 0.356644 74.6486C0.0594407 68.22 0 66.2912 0 50.0045C0 33.7177 0.0653847 31.7918 0.353672 25.3574C0.624127 19.4103 1.61976 16.1857 2.45193 14.031C3.5605 11.1838 4.88305 9.15386 7.014 7.014C9.14792 4.88008 11.1778 3.55455 14.028 2.45193C16.1768 1.61381 19.4074 0.624127 25.3544 0.353672C31.7859 0.0594407 33.7177 0 49.9985 0C66.2853 0 68.2111 0.0653847 74.6456 0.353672C80.5926 0.624127 83.8173 1.61976 85.972 2.45193C88.8192 3.55455 90.8491 4.88008 92.986 7.014C95.1229 9.14792 96.4395 11.1808 97.5481 14.028C98.3862 16.1768 99.3759 19.4074 99.6463 25.3544C99.9406 31.7889 100 33.7147 100 50.0015C100 66.2823 99.9406 68.2141 99.6463 74.6486C99.3759 80.5956 98.3802 83.8262 97.5481 85.975C96.4395 88.8222 95.1199 90.8521 92.986 92.986C90.8521 95.1199 88.8192 96.4395 85.972 97.5481C83.8232 98.3862 80.5926 99.3759 74.6456 99.6463C68.2171 99.9406 66.2853 100 49.9985 100C33.7177 100 31.7859 99.9435 25.3574 99.6463Z" fill="url(#paint0_radial)"/>
<path d="M25.3574 99.6463C19.4103 99.3759 16.1797 98.3862 14.031 97.5481C11.1838 96.4395 9.15386 95.1199 7.01697 92.986C4.88008 90.8521 3.55752 88.8222 2.4549 85.975C1.61679 83.8262 0.627099 80.5956 0.356644 74.6486C0.0594407 68.22 0 66.2912 0 50.0045C0 33.7177 0.0653847 31.7918 0.353672 25.3574C0.624127 19.4103 1.61976 16.1857 2.45193 14.031C3.5605 11.1838 4.88305 9.15386 7.014 7.014C9.14792 4.88008 11.1778 3.55455 14.028 2.45193C16.1768 1.61381 19.4074 0.624127 25.3544 0.353672C31.7859 0.0594407 33.7177 0 49.9985 0C66.2853 0 68.2111 0.0653847 74.6456 0.353672C80.5926 0.624127 83.8173 1.61976 85.972 2.45193C88.8192 3.55455 90.8491 4.88008 92.986 7.014C95.1229 9.14792 96.4395 11.1808 97.5481 14.028C98.3862 16.1768 99.3759 19.4074 99.6463 25.3544C99.9406 31.7889 100 33.7147 100 50.0015C100 66.2823 99.9406 68.2141 99.6463 74.6486C99.3759 80.5956 98.3802 83.8262 97.5481 85.975C96.4395 88.8222 95.1199 90.8521 92.986 92.986C90.8521 95.1199 88.8192 96.4395 85.972 97.5481C83.8232 98.3862 80.5926 99.3759 74.6456 99.6463C68.2171 99.9406 66.2853 100 49.9985 100C33.7177 100 31.7859 99.9435 25.3574 99.6463Z" fill="url(#paint1_radial)"/>
<path d="M37.7225 50.2132C37.7225 43.3742 43.2651 37.8287 50.104 37.8287C56.9429 37.8287 62.4884 43.3742 62.4884 50.2132C62.4884 57.0521 56.9429 62.5976 50.104 62.5976C43.2651 62.5976 37.7225 57.0521 37.7225 50.2132ZM31.0277 50.2132C31.0277 60.749 39.5681 69.2894 50.104 69.2894C60.6398 69.2894 69.1803 60.749 69.1803 50.2132C69.1803 39.6773 60.6398 31.1369 50.104 31.1369C39.5681 31.1369 31.028 39.6767 31.028 50.2132H31.0277ZM65.4777 30.3805C65.4774 31.2622 65.7385 32.1242 66.228 32.8575C66.7176 33.5909 67.4136 34.1625 68.2281 34.5003C69.0426 34.838 69.9389 34.9267 70.8037 34.755C71.6686 34.5833 72.4631 34.1591 73.0868 33.5358C73.7105 32.9126 74.1354 32.1184 74.3078 31.2537C74.4802 30.389 74.3922 29.4926 74.0551 28.6779C73.718 27.8632 73.1469 27.1667 72.414 26.6765C71.6811 26.1864 70.8193 25.9246 69.9375 25.9242H69.9358C68.7539 25.9248 67.6206 26.3944 66.7847 27.2299C65.9488 28.0655 65.4787 29.1986 65.4777 30.3805ZM35.0952 80.453C31.4732 80.288 29.5046 79.6847 28.1963 79.175C26.4618 78.4998 25.2242 77.6955 23.9231 76.3962C22.6219 75.0968 21.8165 73.8604 21.1442 72.126C20.6342 70.8183 20.0309 68.849 19.8663 65.227C19.6862 61.311 19.6502 60.1347 19.6502 50.2138C19.6502 40.2928 19.6891 39.1197 19.8663 35.2005C20.0312 31.5785 20.639 29.6131 21.1442 28.3015C21.8195 26.5671 22.6237 25.3295 23.9231 24.0284C25.2225 22.7272 26.4588 21.9218 28.1963 21.2495C29.504 20.7395 31.4732 20.1362 35.0952 19.9715C39.0112 19.7914 40.1875 19.7555 50.104 19.7555C60.0205 19.7555 61.198 19.7938 65.1172 19.9721C68.7392 20.1371 70.7046 20.7449 72.0162 21.2501C73.7507 21.9224 74.9882 22.7296 76.2894 24.029C77.5905 25.3283 78.393 26.5677 79.0682 28.3021C79.5782 29.6098 80.1815 31.5791 80.3462 35.2011C80.5263 39.1203 80.5623 40.2934 80.5623 50.2143C80.5623 60.1353 80.5263 61.3083 80.3462 65.2276C80.1812 68.8496 79.5749 70.8183 79.0682 72.1266C78.393 73.861 77.5887 75.0986 76.2894 76.3968C74.99 77.695 73.7507 78.5004 72.0162 79.1756C70.7085 79.6856 68.7392 80.2889 65.1172 80.4536C61.2013 80.6337 60.0249 80.6697 50.104 80.6697C40.1831 80.6697 39.01 80.6337 35.0952 80.4536V80.453ZM34.7876 13.2877C30.8328 13.4678 28.1303 14.0949 25.7702 15.0133C23.3275 15.9617 21.2569 17.234 19.1892 19.2984C17.1216 21.3627 15.8525 23.4337 14.9042 25.8793C13.9858 28.2409 13.3587 30.9419 13.1786 34.8968C12.9955 38.8579 12.9536 40.1243 12.9536 50.2132C12.9536 60.302 12.9955 61.5684 13.1786 65.5295C13.3587 69.4847 13.9858 72.1854 14.9042 74.547C15.8525 76.9897 17.1219 79.0645 19.1892 81.1279C21.2566 83.1914 23.3245 84.462 25.7702 85.413C28.1347 86.3314 30.8328 86.9585 34.7876 87.1386C38.7508 87.3187 40.0151 87.3636 50.104 87.3636C60.1929 87.3636 61.4592 87.3217 65.4204 87.1386C69.3755 86.9585 72.0762 86.3314 74.4378 85.413C76.8805 84.462 78.9511 83.1923 81.0188 81.1279C83.0864 79.0636 84.3528 76.9897 85.3038 74.547C86.2222 72.1854 86.8523 69.4844 87.0294 65.5295C87.2095 61.5654 87.2514 60.302 87.2514 50.2132C87.2514 40.1243 87.2095 38.8579 87.0294 34.8968C86.8493 30.9416 86.2222 28.2394 85.3038 25.8793C84.3528 23.4366 83.0831 21.366 81.0188 19.2984C78.9544 17.2307 76.8805 15.9617 74.4408 15.0133C72.0762 14.0949 69.3752 13.4649 65.4233 13.2877C61.4616 13.1067 60.1958 13.0627 50.1085 13.0627C40.0211 13.0627 38.7523 13.1047 34.7891 13.2877" fill="white"/>
<defs>
<radialGradient id="paint0_radial" cx="0" cy="0" r="1" gradientUnits="userSpaceOnUse" gradientTransform="translate(6.4719 97.8093) scale(126.963)">
<stop offset="0.09" stop-color="#FA8F21"/>
<stop offset="0.78" stop-color="#D82D7E"/>
</radialGradient>
<radialGradient id="paint1_radial" cx="0" cy="0" r="1" gradientUnits="userSpaceOnUse" gradientTransform="translate(69.2665 94.5983) scale(111.729)">
<stop offset="0.64" stop-color="#8C3AAA" stop-opacity="0"/>
<stop offset="1" stop-color="#8C3AAA"/>
</radialGradient>
</defs>
</svg>
