<svg width="50" height="52" viewBox="0 0 50 52" fill="none" xmlns="http://www.w3.org/2000/svg">
<g clip-path="url(#clip0)">
<path d="M0 0.309875H50V51.6486H0V0.309875Z" fill="#F0DB4F"/>
<path d="M45.9077 39.4048C45.5417 37.0622 44.0541 35.0954 39.6483 33.2604C38.1179 32.5381 36.4116 32.0209 35.9031 30.83C35.7225 30.137 35.6987 29.7466 35.8128 29.3269C36.1407 27.9652 37.7234 27.5406 38.9781 27.9311C39.7861 28.2093 40.5513 28.8486 41.0123 29.8686C43.1701 28.4338 43.1653 28.4435 44.6719 27.4577C44.1206 26.5793 43.826 26.1741 43.4647 25.7984C42.1672 24.3099 40.3992 23.5437 37.5713 23.6022C37.0818 23.6657 36.5875 23.734 36.098 23.7975C34.6864 24.1635 33.3414 24.9248 32.5524 25.9448C30.1855 28.7022 30.8604 33.5288 33.7406 35.5152C36.578 37.7016 40.7462 38.1994 41.2785 40.2443C41.7965 42.7479 39.4867 43.558 37.1911 43.2701C35.4991 42.9089 34.5581 42.0256 33.541 40.42C31.6684 41.5327 31.6684 41.5327 29.7436 42.6698C30.1998 43.6947 30.6798 44.1583 31.445 45.0465C35.0667 48.8191 44.1301 48.6336 45.7556 42.9236C45.8221 42.7283 46.2594 41.4204 45.9077 39.4048ZM27.1818 23.9048H22.5051C22.5051 28.0531 22.4861 32.1721 22.4861 36.3204C22.4861 38.9607 22.6192 41.3813 22.2009 42.1232C21.5165 43.5823 19.7437 43.4018 18.9358 43.1187C18.1135 42.7039 17.6953 42.1133 17.2105 41.2789C17.0774 41.0397 16.9776 40.8543 16.9443 40.8396C15.6754 41.6351 14.4111 42.4355 13.1421 43.231C13.7743 44.5633 14.7058 45.72 15.8987 46.4715C17.681 47.5696 20.0764 47.9063 22.5811 47.3158C24.2113 46.8278 25.6181 45.8176 26.3548 44.2803C27.4194 42.2647 27.1913 39.8245 27.1818 37.1257C27.2055 32.7236 27.1818 28.3215 27.1818 23.9048Z" fill="#323330"/>
</g>
<defs>
<clipPath id="clip0">
<rect width="50" height="51.3387" fill="white" transform="translate(0 0.309875)"/>
</clipPath>
</defs>
</svg>
