<svg width="100" height="100" viewBox="0 0 100 100" fill="none" xmlns="http://www.w3.org/2000/svg">
<path d="M0 7.33458C0 3.39649 3.31016 0.199951 7.39062 0.199951H92.6094C96.6914 0.199951 100 3.39649 100 7.33458V92.6665C100 96.6058 96.6914 99.8 92.6094 99.8H7.39062C3.31055 99.8 0 96.6061 0 92.6677V7.33341V7.33458Z" fill="#006699"/>
<path d="M30.3891 83.5521V38.7118H15.425V83.5521H30.3906H30.3891ZM22.9102 32.5906C28.1273 32.5906 31.3754 29.1474 31.3754 24.8444C31.2777 20.4433 28.1273 17.0962 23.0094 17.0962C17.8879 17.0962 14.543 20.4433 14.543 24.844C14.543 29.147 17.7898 32.5902 22.8121 32.5902H22.909L22.9102 32.5906ZM38.6719 83.5521H53.6348V58.5139C53.6348 57.1755 53.7324 55.8336 54.1277 54.8777C55.209 52.199 57.6711 49.4262 61.8059 49.4262C67.2191 49.4262 69.3859 53.5378 69.3859 59.5663V83.5521H84.3484V57.842C84.3484 44.0696 76.9672 37.6605 67.1223 37.6605C59.0508 37.6605 55.5059 42.1538 53.5363 45.2142H53.6359V38.7133H38.6727C38.868 42.9199 38.6715 83.5536 38.6715 83.5536L38.6719 83.5521Z" fill="white"/>
</svg>
