<svg width="300" height="309" viewBox="0 0 300 309" fill="none" xmlns="http://www.w3.org/2000/svg">
<path d="M300 236.205H0V236.358H300V236.205Z" fill="#EBEBEB"/>
<path d="M269.94 246.117H250.068V246.271H269.94V246.117Z" fill="#EBEBEB"/>
<path d="M198.732 247.793H193.518V247.946H198.732V247.793Z" fill="#EBEBEB"/>
<path d="M249.468 240.4H237.954V240.554H249.468V240.4Z" fill="#EBEBEB"/>
<path d="M57.39 241.435H31.476V241.589H57.39V241.435Z" fill="#EBEBEB"/>
<path d="M66.534 241.435H62.736V241.589H66.534V241.435Z" fill="#EBEBEB"/>
<path d="M135.09 244.035H78.882V244.188H135.09V244.035Z" fill="#EBEBEB"/>
<path d="M142.2 208.728H26.346C25.4384 208.727 24.5685 208.355 23.9273 207.696C23.2861 207.036 22.926 206.142 22.926 205.21V37.9921C22.9339 37.0655 23.2975 36.1796 23.9379 35.5267C24.5782 34.8738 25.4436 34.5067 26.346 34.5051H142.2C143.109 34.5051 143.98 34.8758 144.623 35.5355C145.265 36.1952 145.626 37.0899 145.626 38.0229V205.21C145.626 206.143 145.265 207.038 144.623 207.698C143.98 208.358 143.109 208.728 142.2 208.728ZM26.346 34.6284C25.4782 34.63 24.6465 34.9851 24.0334 35.6157C23.4203 36.2464 23.076 37.101 23.076 37.9921V205.21C23.076 206.101 23.4203 206.956 24.0334 207.587C24.6465 208.217 25.4782 208.573 26.346 208.574H142.2C143.068 208.573 143.901 208.218 144.515 207.587C145.129 206.957 145.474 206.102 145.476 205.21V37.9921C145.474 37.1005 145.129 36.2458 144.515 35.6154C143.901 34.9849 143.068 34.63 142.2 34.6284H26.346Z" fill="#EBEBEB"/>
<path d="M271.986 208.728H156.126C155.218 208.727 154.347 208.355 153.705 207.696C153.063 207.037 152.702 206.143 152.7 205.21V37.9921C152.709 37.065 153.074 36.179 153.716 35.5263C154.357 34.8736 155.223 34.5067 156.126 34.5051H271.986C272.887 34.5083 273.751 34.8762 274.39 35.5289C275.029 36.1816 275.392 37.0666 275.4 37.9921V205.21C275.4 206.141 275.041 207.034 274.401 207.693C273.761 208.353 272.893 208.725 271.986 208.728ZM156.126 34.6284C155.258 34.63 154.425 34.9849 153.811 35.6154C153.197 36.2458 152.852 37.1005 152.85 37.9921V205.21C152.852 206.102 153.197 206.957 153.811 207.587C154.425 208.218 155.258 208.573 156.126 208.574H271.986C272.854 208.573 273.687 208.218 274.301 207.587C274.915 206.957 275.26 206.102 275.262 205.21V37.9921C275.26 37.1005 274.915 36.2458 274.301 35.6154C273.687 34.9849 272.854 34.63 271.986 34.6284H156.126Z" fill="#EBEBEB"/>
<path d="M261.582 236.205H280.602V201.631H261.582V236.205Z" fill="#F0F0F0"/>
<path d="M244.926 236.205H263.946V209.215H244.926V236.205Z" fill="#F0F0F0"/>
<path d="M232.764 236.205H251.784V186.975H232.764V236.205Z" fill="#F0F0F0"/>
<path d="M220.128 236.205H239.148V147.06H220.128V236.205Z" fill="#F0F0F0"/>
<path d="M173.088 236.205H224.124V153.997H173.088V236.205Z" fill="#F0F0F0"/>
<path d="M43.47 205.266H16.542V236.205H43.47V205.266Z" fill="#F5F5F5"/>
<path d="M67.05 212.049H40.122V236.198H67.05V212.049Z" fill="#F5F5F5"/>
<path d="M84.27 192.15H57.342V236.205H84.27V192.15Z" fill="#F5F5F5"/>
<path d="M102.168 156.43H75.24V236.205H102.168V156.43Z" fill="#F5F5F5"/>
<path d="M96.732 236.205H140.796V138.749H96.732L96.732 236.205Z" fill="#F0F0F0"/>
<path d="M100.92 154.699H103.02V142.84H100.92V154.699Z" fill="#F5F5F5"/>
<path d="M100.92 173.237H103.02V161.377H100.92V173.237Z" fill="#F5F5F5"/>
<path d="M100.92 191.786H103.02V179.927H100.92V191.786Z" fill="#F5F5F5"/>
<path d="M100.92 210.33H103.02V198.471H100.92V210.33Z" fill="#F5F5F5"/>
<path d="M100.92 228.873H103.02V217.014H100.92V228.873Z" fill="#F5F5F5"/>
<path d="M108.36 154.699H110.46V142.84H108.36V154.699Z" fill="#F5F5F5"/>
<path d="M108.36 173.237H110.46V161.377H108.36V173.237Z" fill="#F5F5F5"/>
<path d="M108.36 191.786H110.46V179.927H108.36V191.786Z" fill="#F5F5F5"/>
<path d="M108.36 210.33H110.46V198.471H108.36V210.33Z" fill="#F5F5F5"/>
<path d="M108.36 228.873H110.46V217.014H108.36V228.873Z" fill="#F5F5F5"/>
<path d="M115.794 154.699H117.894V142.84H115.794V154.699Z" fill="#F5F5F5"/>
<path d="M115.794 173.237H117.894V161.377H115.794V173.237Z" fill="#F5F5F5"/>
<path d="M115.794 191.786H117.894V179.927H115.794V191.786Z" fill="#F5F5F5"/>
<path d="M115.794 210.33H117.894V198.471H115.794V210.33Z" fill="#F5F5F5"/>
<path d="M115.794 228.873H117.894V217.014H115.794V228.873Z" fill="#F5F5F5"/>
<path d="M123.234 154.699H125.334V142.84H123.234V154.699Z" fill="#F5F5F5"/>
<path d="M123.234 173.237H125.334V161.377H123.234V173.237Z" fill="#F5F5F5"/>
<path d="M123.234 191.786H125.334V179.927H123.234V191.786Z" fill="#F5F5F5"/>
<path d="M123.234 210.33H125.334V198.471H123.234V210.33Z" fill="#F5F5F5"/>
<path d="M123.234 228.873H125.334V217.014H123.234V228.873Z" fill="#F5F5F5"/>
<path d="M130.662 154.699H132.762V142.84H130.662V154.699Z" fill="#F5F5F5"/>
<path d="M130.662 173.237H132.762V161.377H130.662V173.237Z" fill="#F5F5F5"/>
<path d="M130.662 191.786H132.762V179.927H130.662V191.786Z" fill="#F5F5F5"/>
<path d="M130.662 210.33H132.762V198.471H130.662V210.33Z" fill="#F5F5F5"/>
<path d="M130.662 228.873H132.762V217.014H130.662V228.873Z" fill="#F5F5F5"/>
<path opacity="0.5" d="M140.796 138.749H131.712L127.764 236.205H140.796V138.749Z" fill="#E0E0E0"/>
<path d="M213.516 71.5737L160.062 77.833V236.205H213.516V71.5737Z" fill="#F0F0F0"/>
<path d="M256.284 71.5737H213.516V236.205H256.284V71.5737Z" fill="#E6E6E6"/>
<path d="M256.284 85.2134H160.062V86.0571H256.284V85.2134Z" fill="#E0E0E0"/>
<path d="M256.284 94.1772H160.062V95.0209H256.284V94.1772Z" fill="#E0E0E0"/>
<path d="M256.284 103.141H160.062V103.985H256.284V103.141Z" fill="#E0E0E0"/>
<path d="M256.284 112.105H160.062V112.948H256.284V112.105Z" fill="#E0E0E0"/>
<path d="M256.284 121.068H160.062V121.912H256.284V121.068Z" fill="#E0E0E0"/>
<path d="M256.284 130.032H160.062V130.876H256.284V130.032Z" fill="#E0E0E0"/>
<path d="M256.284 138.996H160.062V139.84H256.284V138.996Z" fill="#E0E0E0"/>
<path d="M256.284 147.96H160.062V148.803H256.284V147.96Z" fill="#E0E0E0"/>
<path d="M256.284 156.923H160.062V157.767H256.284V156.923Z" fill="#E0E0E0"/>
<path d="M256.284 165.887H160.062V166.731H256.284V165.887Z" fill="#E0E0E0"/>
<path d="M256.284 174.851H160.062V175.694H256.284V174.851Z" fill="#E0E0E0"/>
<path d="M256.284 183.821H160.062V184.664H256.284V183.821Z" fill="#E0E0E0"/>
<path d="M256.284 192.784H160.062V193.628H256.284V192.784Z" fill="#E0E0E0"/>
<path d="M256.284 201.748H160.062V202.592H256.284V201.748Z" fill="#E0E0E0"/>
<path d="M256.284 210.712H160.062V211.556H256.284V210.712Z" fill="#E0E0E0"/>
<path d="M256.284 219.676H160.062V220.519H256.284V219.676Z" fill="#E0E0E0"/>
<path d="M256.284 228.639H160.062V229.483H256.284V228.639Z" fill="#E0E0E0"/>
<path d="M64.812 236.205H90.168L90.168 100.307H64.812L64.812 236.205Z" fill="#F0F0F0"/>
<path d="M64.812 100.307H90.168L80.838 88.306H44.526L64.812 100.307Z" fill="#FAFAFA"/>
<path d="M64.812 100.307L44.526 88.306V236.205H64.812V100.307Z" fill="#EBEBEB"/>
<path d="M44.532 107.361H90.168V106.64H44.532V107.361Z" fill="#E0E0E0"/>
<path d="M44.532 115.056H90.168V114.335H44.532V115.056Z" fill="#E0E0E0"/>
<path d="M44.532 122.75H90.168V122.03H44.532V122.75Z" fill="#E0E0E0"/>
<path d="M44.532 130.439H90.168V129.718H44.532V130.439Z" fill="#E0E0E0"/>
<path d="M44.532 138.133H90.168V137.413H44.532V138.133Z" fill="#E0E0E0"/>
<path d="M44.532 145.822H90.168V145.101H44.532V145.822Z" fill="#E0E0E0"/>
<path d="M44.532 153.516H90.168V152.796H44.532V153.516Z" fill="#E0E0E0"/>
<path d="M44.532 161.211H90.168V160.491H44.532V161.211Z" fill="#E0E0E0"/>
<path d="M44.532 168.9H90.168V168.179H44.532V168.9Z" fill="#E0E0E0"/>
<path d="M44.532 176.594H90.168V175.874H44.532V176.594Z" fill="#E0E0E0"/>
<path d="M44.532 184.283H90.168V183.562H44.532V184.283Z" fill="#E0E0E0"/>
<path d="M44.532 191.977H90.168V191.257H44.532V191.977Z" fill="#E0E0E0"/>
<path d="M44.532 199.666H90.168V198.945H44.532V199.666Z" fill="#E0E0E0"/>
<path d="M44.532 207.36H90.168V206.64H44.532V207.36Z" fill="#E0E0E0"/>
<path d="M44.532 215.055H90.168V214.335H44.532V215.055Z" fill="#E0E0E0"/>
<path d="M44.532 222.744H90.168V222.023H44.532V222.744Z" fill="#E0E0E0"/>
<path d="M44.532 230.438H90.168V229.718H44.532V230.438Z" fill="#E0E0E0"/>
<path d="M154.416 236.198H188.61L188.61 115.031H154.416V236.198Z" fill="#F0F0F0"/>
<path d="M176.382 140.745H181.872V121.296H176.382V140.745Z" fill="#E6E6E6"/>
<path d="M162.924 140.745H168.414V121.296H162.924V140.745Z" fill="#E6E6E6"/>
<path d="M176.382 165.93H181.872V146.481H176.382V165.93Z" fill="#E6E6E6"/>
<path d="M162.924 165.93H168.414V146.481H162.924V165.93Z" fill="#E6E6E6"/>
<path d="M176.382 191.115H181.872V171.666H176.382V191.115Z" fill="#E6E6E6"/>
<path d="M162.924 191.115H168.414V171.666H162.924V191.115Z" fill="#E6E6E6"/>
<path d="M176.382 216.3H181.872V196.85H176.382V216.3Z" fill="#E6E6E6"/>
<path d="M162.924 216.3H168.414V196.85H162.924V216.3Z" fill="#E6E6E6"/>
<path d="M154.41 115.037H188.604L180.588 106.64H146.394L154.41 115.037Z" fill="white"/>
<path d="M154.41 115.037L146.394 106.64L138.372 115.037V236.205H154.41V115.037Z" fill="#E6E6E6"/>
<path d="M114.156 92.982C123.255 92.982 130.632 85.4079 130.632 76.0648C130.632 66.7218 123.255 59.1477 114.156 59.1477C105.057 59.1477 97.68 66.7218 97.68 76.0648C97.68 85.4079 105.057 92.982 114.156 92.982Z" fill="#FAFAFA"/>
<path d="M235.704 50.3257C231.606 49.9191 227.844 46.9435 222.504 46.1241C219.846 45.7175 218.304 46.7402 216.732 47.7012C214.764 48.9334 212.358 49.5494 209.34 49.4755C205.371 49.3671 201.442 48.6272 197.694 47.2823C194.31 46.0995 190.776 44.6825 188.094 45.1939C183.12 46.1303 182.976 49.5063 178.86 49.9868C174.744 50.4674 173.994 52.7468 177.408 52.7468H239.94C242.928 52.7468 239.808 50.7261 235.704 50.3257Z" fill="#F5F5F5"/>
<path d="M59.334 49.6234C57.606 50.6645 54.192 50.0361 48.588 49.1367C45.3 48.613 43.668 49.6911 41.388 50.6584C40.476 51.0526 36.468 52.4018 41.7 52.4018H70.8C78.864 52.4018 71.364 50.9233 70.074 50.3503H70.008C66.15 48.5884 61.056 48.5884 59.334 49.6234Z" fill="#F5F5F5"/>
<path d="M78 73.2186H109.8C112.584 73.2186 109.68 71.3335 105.858 70.9577C102.036 70.5819 98.532 67.8096 93.534 67.0457C88.536 66.2817 88.404 70.434 81.84 70.3909C76.536 70.3662 72.6 73.2186 78 73.2186Z" fill="#F5F5F5"/>
<path d="M150 264.026C214.25 264.026 266.334 260.904 266.334 257.052C266.334 253.201 214.25 250.078 150 250.078C85.7505 250.078 33.666 253.201 33.666 257.052C33.666 260.904 85.7505 264.026 150 264.026Z" fill="#F5F5F5"/>
<path d="M82.272 112.998C82.0906 112.998 81.9166 112.924 81.7884 112.792C81.6601 112.66 81.588 112.482 81.588 112.296V55.8887C81.588 55.7025 81.6601 55.5238 81.7884 55.3921C81.9166 55.2604 82.0906 55.1864 82.272 55.1864C82.4534 55.1864 82.6274 55.2604 82.7557 55.3921C82.8839 55.5238 82.956 55.7025 82.956 55.8887V112.296C82.956 112.482 82.8839 112.66 82.7557 112.792C82.6274 112.924 82.4534 112.998 82.272 112.998Z" fill="#00D369"/>
<path d="M100.584 112.998C100.403 112.998 100.229 112.924 100.1 112.792C99.9721 112.66 99.9 112.482 99.9 112.296V55.8887C99.8911 55.7906 99.9022 55.6916 99.9326 55.598C99.9631 55.5045 100.012 55.4186 100.077 55.3457C100.142 55.2728 100.22 55.2146 100.308 55.1747C100.396 55.1349 100.491 55.1143 100.587 55.1143C100.683 55.1143 100.778 55.1349 100.866 55.1747C100.954 55.2146 101.032 55.2728 101.097 55.3457C101.162 55.4186 101.211 55.5045 101.241 55.598C101.272 55.6916 101.283 55.7906 101.274 55.8887V112.296C101.272 112.482 101.199 112.661 101.07 112.793C100.941 112.924 100.766 112.998 100.584 112.998Z" fill="#00D369"/>
<path d="M100.584 75.3933C100.402 75.3939 100.228 75.3209 100.098 75.19L91.428 66.2879L82.758 75.1654C82.6258 75.2791 82.4569 75.3378 82.2846 75.33C82.1123 75.3221 81.9491 75.2484 81.8272 75.1231C81.7052 74.9979 81.6334 74.8304 81.6257 74.6535C81.6181 74.4766 81.6753 74.3031 81.786 74.1674L90.456 65.3084L81.786 56.3878C81.6817 56.2903 81.6089 56.1623 81.5776 56.021C81.5463 55.8798 81.5579 55.7321 81.6109 55.5978C81.6638 55.4635 81.7556 55.3492 81.8738 55.2701C81.992 55.191 82.131 55.1511 82.272 55.1556H100.584C100.72 55.1559 100.853 55.1976 100.966 55.2755C101.08 55.3533 101.168 55.4638 101.22 55.593C101.273 55.7221 101.286 55.8644 101.26 56.0016C101.233 56.1388 101.167 56.2647 101.07 56.3631L92.4 65.3084L101.07 74.2105C101.178 74.3064 101.254 74.4346 101.287 74.5771C101.321 74.7196 101.31 74.8692 101.256 75.005C101.203 75.1409 101.109 75.2561 100.988 75.3346C100.868 75.413 100.727 75.4508 100.584 75.4426V75.3933ZM83.928 56.5911L91.428 64.2919L98.928 56.5911H83.928Z" fill="#00D369"/>
<path d="M82.272 56.5909C82.1361 56.5919 82.0029 56.5512 81.8895 56.4741C81.7762 56.397 81.6878 56.287 81.6356 56.1581C81.5835 56.0291 81.5699 55.8872 81.5967 55.7503C81.6235 55.6134 81.6894 55.4878 81.786 55.3896L90.942 45.9885C91.0056 45.9225 91.0813 45.8702 91.1647 45.8345C91.2482 45.7987 91.3376 45.7804 91.428 45.7804C91.5184 45.7804 91.6079 45.7987 91.6913 45.8345C91.7747 45.8702 91.8504 45.9225 91.914 45.9885L101.07 55.3896C101.134 55.4549 101.185 55.5326 101.22 55.6183C101.255 55.7039 101.273 55.7958 101.273 55.8886C101.273 55.9814 101.255 56.0733 101.22 56.159C101.185 56.2446 101.134 56.3223 101.07 56.3876C100.94 56.5178 100.766 56.5907 100.584 56.5907C100.402 56.5907 100.228 56.5178 100.098 56.3876L91.428 47.4855L82.758 56.3876C82.6284 56.5185 82.4538 56.5915 82.272 56.5909Z" fill="#00D369"/>
<path d="M118.896 56.5909C118.715 56.5902 118.54 56.5174 118.41 56.3876L109.74 47.4855L101.07 56.3876C100.94 56.5178 100.766 56.5907 100.584 56.5907C100.402 56.5907 100.228 56.5178 100.098 56.3876C100.034 56.3223 99.9828 56.2446 99.948 56.159C99.9132 56.0733 99.8953 55.9814 99.8953 55.8886C99.8953 55.7958 99.9132 55.7039 99.948 55.6183C99.9828 55.5326 100.034 55.4549 100.098 55.3896L109.254 45.9885C109.318 45.9225 109.393 45.8702 109.477 45.8345C109.56 45.7987 109.65 45.7804 109.74 45.7804C109.83 45.7804 109.92 45.7987 110.003 45.8345C110.087 45.8702 110.162 45.9225 110.226 45.9885L119.4 55.3896C119.497 55.4878 119.563 55.6134 119.589 55.7503C119.616 55.8872 119.603 56.0291 119.55 56.1581C119.498 56.287 119.41 56.397 119.296 56.4741C119.183 56.5512 119.05 56.5919 118.914 56.5909H118.896Z" fill="#00D369"/>
<path d="M118.896 56.5909C118.715 56.5902 118.54 56.5174 118.41 56.3876C118.346 56.3223 118.295 56.2446 118.26 56.159C118.225 56.0733 118.207 55.9814 118.207 55.8886C118.207 55.7958 118.225 55.7039 118.26 55.6183C118.295 55.5326 118.346 55.4549 118.41 55.3896L127.566 45.9885C127.63 45.9225 127.705 45.8702 127.789 45.8345C127.872 45.7987 127.962 45.7804 128.052 45.7804C128.142 45.7804 128.232 45.7987 128.315 45.8345C128.399 45.8702 128.474 45.9225 128.538 45.9885L137.694 55.3896C137.758 55.4549 137.809 55.5326 137.844 55.6183C137.879 55.7039 137.897 55.7958 137.897 55.8886C137.897 55.9814 137.879 56.0733 137.844 56.159C137.809 56.2446 137.758 56.3223 137.694 56.3876C137.564 56.5178 137.39 56.5907 137.208 56.5907C137.026 56.5907 136.852 56.5178 136.722 56.3876L128.052 47.4855L119.4 56.3876C119.334 56.4547 119.255 56.5072 119.168 56.5422C119.082 56.5771 118.989 56.5937 118.896 56.5909Z" fill="#00D369"/>
<path d="M82.272 94.1956C82.1361 94.1966 82.0029 94.1559 81.8895 94.0788C81.7762 94.0017 81.6878 93.8917 81.6356 93.7627C81.5835 93.6338 81.5699 93.4918 81.5967 93.355C81.6235 93.2181 81.6894 93.0925 81.786 92.9943L100.098 74.192C100.23 74.0783 100.399 74.0196 100.571 74.0275C100.744 74.0353 100.907 74.1091 101.029 74.2343C101.151 74.3595 101.223 74.527 101.23 74.7039C101.238 74.8808 101.181 75.0543 101.07 75.19L82.758 93.9923C82.6284 94.1232 82.4538 94.1962 82.272 94.1956Z" fill="#00D369"/>
<path d="M100.584 94.1956C100.402 94.1962 100.228 94.1232 100.098 93.9923L81.786 75.1654C81.6753 75.0296 81.6181 74.8562 81.6257 74.6793C81.6334 74.5024 81.7052 74.3348 81.8272 74.2096C81.9491 74.0844 82.1123 74.0106 82.2846 74.0028C82.4569 73.995 82.6258 74.0537 82.758 74.1674L101.07 92.9697C101.167 93.0679 101.233 93.1935 101.259 93.3303C101.286 93.4672 101.273 93.6092 101.22 93.7381C101.168 93.867 101.08 93.9771 100.966 94.0542C100.853 94.1313 100.72 94.172 100.584 94.171V94.1956Z" fill="#00D369"/>
<path d="M100.584 112.998H82.272C82.1363 112.999 82.0034 112.958 81.8901 112.882C81.7769 112.805 81.6884 112.695 81.636 112.567C81.5851 112.437 81.5721 112.295 81.5988 112.159C81.6254 112.022 81.6905 111.896 81.786 111.797L90.456 102.888L81.786 93.9862C81.6753 93.8504 81.6181 93.677 81.6258 93.5001C81.6334 93.3232 81.7052 93.1556 81.8272 93.0304C81.9491 92.9052 82.1123 92.8314 82.2846 92.8236C82.4569 92.8157 82.6258 92.8744 82.758 92.9881L91.428 101.89L100.098 92.9881C100.23 92.8744 100.399 92.8157 100.571 92.8236C100.744 92.8314 100.907 92.9052 101.029 93.0304C101.151 93.1556 101.223 93.3232 101.23 93.5001C101.238 93.677 101.181 93.8504 101.07 93.9862L92.4 102.888L101.07 111.79C101.167 111.889 101.233 112.014 101.259 112.151C101.286 112.288 101.273 112.43 101.22 112.559C101.168 112.688 101.08 112.798 100.966 112.875C100.853 112.952 100.72 112.993 100.584 112.992V112.998ZM83.928 111.593H98.928L91.428 103.892L83.928 111.593Z" fill="#263238"/>
<path d="M75.864 66.0415H66.084L67.314 55.8887H74.628L75.864 66.0415Z" fill="#00D369"/>
<path d="M75.864 66.7438H66.084C65.9869 66.7435 65.8909 66.7226 65.8021 66.6823C65.7133 66.642 65.6336 66.5832 65.568 66.5097C65.5047 66.4339 65.4571 66.3456 65.4283 66.2503C65.3994 66.1549 65.3898 66.0545 65.4 65.9552L66.636 55.8025C66.6565 55.6326 66.7367 55.4762 66.8615 55.3628C66.9864 55.2494 67.1473 55.1866 67.314 55.1864H74.628C74.7954 55.1865 74.9571 55.249 75.0829 55.3623C75.2087 55.4756 75.2902 55.6321 75.312 55.8025L76.512 65.9552C76.5239 66.0539 76.5152 66.1541 76.4866 66.2491C76.458 66.3441 76.41 66.4317 76.3459 66.5063C76.2819 66.5808 76.2031 66.6406 76.1148 66.6815C76.0266 66.7224 75.9308 66.7437 75.834 66.7438H75.864ZM66.864 65.333H75.084L74.022 56.5911H67.926L66.864 65.333Z" fill="#00D369"/>
<path d="M137.208 56.5905H64.536C64.4404 56.5997 64.344 56.5883 64.2529 56.557C64.1618 56.5258 64.0781 56.4754 64.0071 56.409C63.9361 56.3426 63.8794 56.2618 63.8406 56.1716C63.8018 56.0814 63.7817 55.984 63.7817 55.8854C63.7817 55.7868 63.8018 55.6894 63.8406 55.5992C63.8794 55.509 63.9361 55.4282 64.0071 55.3618C64.0781 55.2954 64.1618 55.245 64.2529 55.2138C64.344 55.1825 64.4404 55.1711 64.536 55.1803H137.208C137.304 55.1711 137.4 55.1825 137.491 55.2138C137.582 55.245 137.666 55.2954 137.737 55.3618C137.808 55.4282 137.865 55.509 137.903 55.5992C137.942 55.6894 137.962 55.7868 137.962 55.8854C137.962 55.984 137.942 56.0814 137.903 56.1716C137.865 56.2618 137.808 56.3426 137.737 56.409C137.666 56.4754 137.582 56.5258 137.491 56.557C137.4 56.5883 137.304 56.5997 137.208 56.5905Z" fill="#263238"/>
<path d="M128.052 47.1894H91.452C91.2809 47.173 91.1219 47.0916 91.0062 46.9611C90.8904 46.8307 90.8263 46.6607 90.8263 46.4843C90.8263 46.3078 90.8904 46.1378 91.0062 46.0074C91.1219 45.8769 91.2809 45.7956 91.452 45.7791H128.052C128.148 45.7699 128.244 45.7813 128.335 45.8126C128.426 45.8439 128.51 45.8943 128.581 45.9607C128.652 46.027 128.709 46.1079 128.747 46.1981C128.786 46.2882 128.806 46.3857 128.806 46.4843C128.806 46.5828 128.786 46.6803 128.747 46.7705C128.709 46.8606 128.652 46.9415 128.581 47.0078C128.51 47.0742 128.426 47.1246 128.335 47.1559C128.244 47.1872 128.148 47.1986 128.052 47.1894Z" fill="#00D369"/>
<path d="M146.826 87.4559H76.224C72.4895 87.4559 69.462 90.5644 69.462 94.3989V247.251C69.462 251.085 72.4895 254.194 76.224 254.194H146.826C150.561 254.194 153.588 251.085 153.588 247.251V94.3989C153.588 90.5644 150.561 87.4559 146.826 87.4559Z" fill="#00D369"/>
<path opacity="0.2" d="M146.826 87.4559H76.224C72.4895 87.4559 69.462 90.5644 69.462 94.3989V247.251C69.462 251.085 72.4895 254.194 76.224 254.194H146.826C150.561 254.194 153.588 251.085 153.588 247.251V94.3989C153.588 90.5644 150.561 87.4559 146.826 87.4559Z" fill="black"/>
<path d="M155.466 87.4559H84.864C81.1295 87.4559 78.102 90.5644 78.102 94.3989V247.251C78.102 251.085 81.1295 254.194 84.864 254.194H155.466C159.201 254.194 162.228 251.085 162.228 247.251V94.3989C162.228 90.5644 159.201 87.4559 155.466 87.4559Z" fill="#00D369"/>
<path d="M159.408 247.251V94.3928C159.408 92.1574 157.643 90.3452 155.466 90.3452H84.858C82.6809 90.3452 80.916 92.1574 80.916 94.3928L80.916 247.251C80.916 249.486 82.6809 251.298 84.858 251.298H155.466C157.643 251.298 159.408 249.486 159.408 247.251Z" fill="white"/>
<path opacity="0.1" d="M158.283 183.134L155.05 114.757C154.919 111.991 152.629 109.857 149.934 109.992L92.2943 112.866C89.6002 113 87.5222 115.351 87.653 118.118L90.8867 186.494C91.0175 189.261 93.3076 191.394 96.0018 191.26L153.642 188.386C156.336 188.252 158.414 185.9 158.283 183.134Z" fill="black"/>
<path d="M157.158 98.2555V95.36C157.158 93.8697 155.981 92.6616 154.53 92.6616H85.8C84.3486 92.6616 83.172 93.8697 83.172 95.36V98.2555C83.172 99.7458 84.3486 100.954 85.8 100.954H154.53C155.981 100.954 157.158 99.7458 157.158 98.2555Z" fill="#00D369"/>
<path d="M90.996 98.7483C90.4942 98.7483 90.0129 98.5441 89.6575 98.1803C89.3021 97.8166 89.1016 97.323 89.1 96.8077C89.1016 96.2919 89.3019 95.7977 89.6571 95.433C90.0123 95.0682 90.4936 94.8626 90.996 94.861C91.4984 94.8626 91.9797 95.0682 92.3349 95.433C92.6902 95.7977 92.8904 96.2919 92.892 96.8077C92.8904 97.323 92.69 97.8166 92.3346 98.1803C91.9792 98.5441 91.4978 98.7483 90.996 98.7483Z" fill="white"/>
<path d="M96.63 98.7483C96.1282 98.7483 95.6469 98.5441 95.2915 98.1803C94.9361 97.8166 94.7356 97.323 94.734 96.8077C94.7356 96.2919 94.9359 95.7977 95.2911 95.433C95.6463 95.0682 96.1276 94.8626 96.63 94.861C97.1318 94.8626 97.6125 95.0684 97.9668 95.4333C98.3211 95.7983 98.52 96.2925 98.52 96.8077C98.5184 97.3219 98.3188 97.8146 97.9647 98.1782C97.6106 98.5417 97.1308 98.7467 96.63 98.7483Z" fill="white"/>
<path d="M102.264 98.7483C101.762 98.7483 101.281 98.5441 100.925 98.1803C100.57 97.8166 100.37 97.323 100.368 96.8077C100.37 96.2919 100.57 95.7977 100.925 95.433C101.28 95.0682 101.762 94.8626 102.264 94.861C102.766 94.8626 103.247 95.0684 103.601 95.4333C103.955 95.7983 104.154 96.2925 104.154 96.8077C104.152 97.3219 103.953 97.8146 103.599 98.1782C103.245 98.5417 102.765 98.7467 102.264 98.7483Z" fill="white"/>
<path d="M151.884 94.3928H149.256C148.686 94.3928 148.224 94.8672 148.224 95.4524V98.1507C148.224 98.736 148.686 99.2104 149.256 99.2104H151.884C152.454 99.2104 152.916 98.736 152.916 98.1507V95.4524C152.916 94.8672 152.454 94.3928 151.884 94.3928Z" fill="white"/>
<path d="M106.671 218.519C113.379 215.667 116.564 207.771 113.786 200.883C111.008 193.996 103.318 190.726 96.6099 193.578C89.9022 196.431 86.7169 204.327 89.4953 211.214C92.2737 218.102 99.9637 221.372 106.671 218.519Z" fill="#00D369"/>
<path d="M148.566 199.912H122.934C122.498 199.911 122.081 199.732 121.773 199.416C121.465 199.1 121.292 198.671 121.29 198.224C121.292 197.777 121.465 197.349 121.773 197.032C122.081 196.716 122.498 196.538 122.934 196.536H148.566C149.002 196.536 149.42 196.714 149.728 197.031C150.037 197.347 150.21 197.777 150.21 198.224C150.21 198.672 150.037 199.101 149.728 199.418C149.42 199.734 149.002 199.912 148.566 199.912Z" fill="#00D369"/>
<path d="M148.566 207.736H122.934C122.498 207.735 122.081 207.556 121.773 207.24C121.465 206.924 121.292 206.495 121.29 206.048C121.292 205.601 121.465 205.173 121.773 204.856C122.081 204.54 122.498 204.362 122.934 204.36H148.566C149.002 204.36 149.42 204.538 149.728 204.855C150.037 205.171 150.21 205.601 150.21 206.048C150.21 206.496 150.037 206.925 149.728 207.242C149.42 207.558 149.002 207.736 148.566 207.736Z" fill="#00D369"/>
<path d="M148.566 212.184H122.934C122.026 212.184 121.29 212.94 121.29 213.872C121.29 214.805 122.026 215.56 122.934 215.56H148.566C149.474 215.56 150.21 214.805 150.21 213.872C150.21 212.94 149.474 212.184 148.566 212.184Z" fill="#00D369"/>
<path d="M145.95 227.124H94.386C91.132 227.124 88.494 229.832 88.494 233.174V240.696C88.494 244.037 91.132 246.745 94.386 246.745H145.95C149.204 246.745 151.842 244.037 151.842 240.696V233.174C151.842 229.832 149.204 227.124 145.95 227.124Z" fill="#E0E0E0"/>
<path d="M165.382 178.185L160.198 109.936C159.988 107.174 157.638 105.111 154.949 105.326L97.4153 109.934C94.7261 110.149 92.7162 112.562 92.9259 115.323L98.1105 183.573C98.3203 186.334 100.67 188.398 103.36 188.183L160.893 183.575C163.582 183.36 165.592 180.947 165.382 178.185Z" fill="white"/>
<path d="M102.966 188.521C101.659 188.519 100.402 188.01 99.4449 187.096C98.4882 186.182 97.9028 184.931 97.806 183.593L92.622 115.339C92.5177 113.933 92.9605 112.541 93.8535 111.47C94.7465 110.398 96.0167 109.734 97.386 109.622L154.926 105.014C156.296 104.907 157.651 105.361 158.694 106.278C159.738 107.195 160.385 108.499 160.494 109.905L165.678 178.159C165.784 179.566 165.342 180.959 164.449 182.032C163.556 183.105 162.284 183.771 160.914 183.882L103.374 188.484C103.236 188.521 103.104 188.521 102.966 188.521ZM98.406 183.593C98.504 184.833 99.0767 185.984 99.9988 186.792C100.921 187.6 102.117 188.001 103.326 187.905L160.866 183.297C162.075 183.195 163.195 182.605 163.982 181.658C164.769 180.71 165.159 179.481 165.066 178.239L159.882 109.985C159.784 108.743 159.21 107.592 158.287 106.784C157.364 105.975 156.166 105.576 154.956 105.673L97.422 110.281C96.2131 110.383 95.0927 110.973 94.3058 111.92C93.5188 112.868 93.1291 114.097 93.222 115.339L98.406 183.593Z" fill="#00D369"/>
<path d="M162.881 176.976L161.731 161.849C161.566 159.667 159.709 158.037 157.585 158.207L102.791 162.596C100.667 162.766 99.0795 164.672 99.2452 166.853L100.394 181.981C100.56 184.162 102.416 185.792 104.541 185.622L159.334 181.234C161.459 181.064 163.046 179.157 162.881 176.976Z" fill="#00D369"/>
<path opacity="0.2" d="M130.378 154.04L127.338 114.031C127.171 111.822 125.291 110.172 123.14 110.344L99.0216 112.276C96.8709 112.448 95.2634 114.378 95.4312 116.586L98.4705 156.595C98.6382 158.803 100.518 160.454 102.668 160.281L126.787 158.35C128.938 158.178 130.545 156.248 130.378 154.04Z" fill="#00D369"/>
<path opacity="0.2" d="M158.17 117.599L157.654 110.812C157.519 109.038 156.009 107.712 154.282 107.85L133.614 109.505C131.887 109.644 130.595 111.194 130.73 112.968L131.245 119.755C131.38 121.529 132.89 122.855 134.618 122.717L155.285 121.061C157.013 120.923 158.304 119.373 158.17 117.599Z" fill="#00D369"/>
<path opacity="0.4" d="M159.488 134.996L158.972 128.209C158.837 126.435 157.327 125.109 155.6 125.247L134.932 126.902C133.205 127.041 131.913 128.591 132.048 130.365L132.563 137.152C132.698 138.926 134.208 140.252 135.936 140.114L156.603 138.459C158.331 138.32 159.622 136.77 159.488 134.996Z" fill="#00D369"/>
<path opacity="0.6" d="M160.812 152.393L160.296 145.606C160.161 143.832 158.651 142.506 156.924 142.645L136.256 144.3C134.529 144.438 133.237 145.988 133.372 147.763L133.887 154.549C134.022 156.324 135.532 157.65 137.26 157.511L157.927 155.856C159.655 155.718 160.946 154.167 160.812 152.393Z" fill="#00D369"/>
<path d="M135.75 97.1219C135.669 97.1219 135.591 97.0888 135.534 97.0299C135.476 96.971 135.444 96.8911 135.444 96.8077V55.8887C135.435 55.8431 135.436 55.7961 135.447 55.7509C135.458 55.7058 135.479 55.6637 135.507 55.6277C135.536 55.5918 135.572 55.5628 135.613 55.5429C135.654 55.523 135.699 55.5126 135.744 55.5126C135.789 55.5126 135.834 55.523 135.875 55.5429C135.916 55.5628 135.952 55.5918 135.981 55.6277C136.009 55.6637 136.03 55.7058 136.041 55.7509C136.052 55.7961 136.053 55.8431 136.044 55.8887V96.8077C136.044 96.889 136.013 96.9671 135.959 97.0256C135.904 97.0842 135.829 97.1187 135.75 97.1219Z" fill="#263238"/>
<path d="M139.56 103.504H131.94C131.636 103.504 131.341 103.403 131.098 103.217C130.855 103.03 130.677 102.768 130.59 102.469L128.952 96.7523C128.892 96.5371 128.881 96.3105 128.92 96.0903C128.96 95.8701 129.048 95.6623 129.179 95.4832C129.31 95.3041 129.479 95.1586 129.674 95.0581C129.869 94.9576 130.084 94.9049 130.302 94.9041H141.198C141.416 94.9049 141.631 94.9576 141.826 95.0581C142.021 95.1586 142.19 95.3041 142.321 95.4832C142.452 95.6623 142.54 95.8701 142.58 96.0903C142.619 96.3105 142.608 96.5371 142.548 96.7523L140.91 102.469C140.824 102.769 140.646 103.031 140.403 103.218C140.16 103.404 139.864 103.505 139.56 103.504Z" fill="#263238"/>
<path d="M135.75 112.363C135.569 112.363 135.395 112.289 135.266 112.158C135.138 112.026 135.066 111.847 135.066 111.661C135.066 111.475 135.138 111.296 135.266 111.164C135.395 111.033 135.569 110.959 135.75 110.959C136.387 110.959 136.997 110.699 137.447 110.237C137.897 109.775 138.15 109.148 138.15 108.494C138.15 107.841 137.897 107.214 137.447 106.752C136.997 106.29 136.387 106.03 135.75 106.03C135.569 106.03 135.395 105.956 135.266 105.825C135.138 105.693 135.066 105.514 135.066 105.328V103.504C135.082 103.329 135.161 103.165 135.288 103.047C135.415 102.928 135.581 102.862 135.753 102.862C135.925 102.862 136.091 102.928 136.218 103.047C136.345 103.165 136.424 103.329 136.44 103.504V104.681C137.361 104.86 138.184 105.386 138.748 106.154C139.311 106.923 139.576 107.88 139.49 108.838C139.404 109.796 138.973 110.687 138.281 111.337C137.59 111.986 136.687 112.348 135.75 112.351V112.363Z" fill="#263238"/>
<path d="M241.632 121.721C242.394 123.526 243.018 125.239 243.63 127.038C244.242 128.837 244.8 130.611 245.274 132.459C245.793 134.346 246.21 136.261 246.522 138.195C246.699 139.229 246.823 140.271 246.894 141.318C246.985 142.55 246.955 143.789 246.804 145.015L246.768 145.267C246.751 145.388 246.725 145.508 246.69 145.625C246.15 147.31 245.503 148.956 244.752 150.553C244.05 152.1 243.252 153.56 242.46 155.007C241.668 156.455 240.804 157.841 239.91 159.215C239.016 160.589 238.11 161.92 237.09 163.244C236.75 163.681 236.271 163.981 235.737 164.092C235.203 164.204 234.648 164.12 234.169 163.854C233.689 163.589 233.316 163.16 233.113 162.641C232.91 162.122 232.89 161.546 233.058 161.014V160.959C233.538 159.474 234.072 157.958 234.582 156.467C235.092 154.977 235.62 153.498 236.106 152.019C236.592 150.541 237.078 149.068 237.51 147.633C237.942 146.198 238.32 144.756 238.584 143.444L238.47 144.06C238.458 143.467 238.399 142.875 238.296 142.292C238.176 141.583 238.026 140.807 237.834 140.025C237.642 139.242 237.432 138.441 237.198 137.634C236.964 136.827 236.724 136.014 236.46 135.17C235.932 133.537 235.386 131.886 234.804 130.242L233.046 125.356L233.016 125.27C232.559 124.099 232.573 122.79 233.055 121.63C233.538 120.47 234.45 119.554 235.59 119.085C236.73 118.615 238.005 118.629 239.135 119.125C240.265 119.621 241.157 120.557 241.614 121.728L241.632 121.721Z" fill="#00D369"/>
<path opacity="0.7" d="M241.632 121.721C242.394 123.526 243.018 125.239 243.63 127.038C244.242 128.837 244.8 130.611 245.274 132.459C245.793 134.346 246.21 136.261 246.522 138.195C246.699 139.229 246.823 140.271 246.894 141.318C246.985 142.55 246.955 143.789 246.804 145.015L246.768 145.267C246.751 145.388 246.725 145.508 246.69 145.625C246.15 147.31 245.503 148.956 244.752 150.553C244.05 152.1 243.252 153.56 242.46 155.007C241.668 156.455 240.804 157.841 239.91 159.215C239.016 160.589 238.11 161.92 237.09 163.244C236.75 163.681 236.271 163.981 235.737 164.092C235.203 164.204 234.648 164.12 234.169 163.854C233.689 163.589 233.316 163.16 233.113 162.641C232.91 162.122 232.89 161.546 233.058 161.014V160.959C233.538 159.474 234.072 157.958 234.582 156.467C235.092 154.977 235.62 153.498 236.106 152.019C236.592 150.541 237.078 149.068 237.51 147.633C237.942 146.198 238.32 144.756 238.584 143.444L238.47 144.06C238.458 143.467 238.399 142.875 238.296 142.292C238.176 141.583 238.026 140.807 237.834 140.025C237.642 139.242 237.432 138.441 237.198 137.634C236.964 136.827 236.724 136.014 236.46 135.17C235.932 133.537 235.386 131.886 234.804 130.242L233.046 125.356L233.016 125.27C232.559 124.099 232.573 122.79 233.055 121.63C233.538 120.47 234.45 119.554 235.59 119.085C236.73 118.615 238.005 118.629 239.135 119.125C240.265 119.621 241.157 120.557 241.614 121.728L241.632 121.721Z" fill="white"/>
<path d="M233.334 160.182L230.268 161.833L234.558 166.411C235.38 165.809 236.113 165.089 236.736 164.273C237.157 163.688 237.337 162.957 237.236 162.237C237.135 161.517 236.761 160.867 236.196 160.429C235.79 160.114 235.306 159.924 234.8 159.88C234.293 159.836 233.785 159.941 233.334 160.182Z" fill="#7F3E3B"/>
<path d="M228.6 167.076L230.37 168.419C230.711 168.676 231.13 168.802 231.552 168.774C231.975 168.746 232.374 168.566 232.68 168.265L234.534 166.417L230.244 161.839L228.276 164.495C227.988 164.882 227.86 165.37 227.92 165.854C227.981 166.337 228.225 166.777 228.6 167.076Z" fill="#7F3E3B"/>
<path d="M184.464 130.999L181.302 126.81L177.672 131.954C177.672 131.954 180.984 135.386 183.042 133.876L184.464 130.999Z" fill="#7F3E3B"/>
<path d="M175.992 126.077L175.014 128.098C174.827 128.489 174.78 128.935 174.883 129.357C174.985 129.78 175.229 130.152 175.572 130.408L177.672 131.954L181.302 126.81L178.422 125.264C178.211 125.152 177.98 125.085 177.743 125.066C177.506 125.046 177.268 125.075 177.042 125.151C176.816 125.226 176.607 125.347 176.427 125.506C176.247 125.665 176.099 125.859 175.992 126.077Z" fill="#7F3E3B"/>
<path d="M236.916 257.607H233.112L232.644 257.157L231.942 257.607C229.62 257.607 226.488 257.52 224.994 256.991C224.951 256.811 224.956 256.624 225.01 256.447C225.064 256.271 225.165 256.114 225.3 255.993C225.3 255.993 231.45 254.04 232.002 252.727H236.664" fill="#263238"/>
<path d="M232.2 202.377C231.438 182.182 232.68 166.22 230.814 158.476L213.414 155.586C213.414 155.586 216.618 189.797 220.47 203.948C224.322 218.099 231.27 253.048 231.27 253.048H237.192C237.192 253.048 237.336 218.949 232.2 202.377Z" fill="#00D369"/>
<path opacity="0.2" d="M219.6 172.504L216.366 181.128C217.398 188.675 218.634 196.395 219.966 201.939C221.4 191.873 220.362 175.362 219.6 172.504Z" fill="black"/>
<path d="M187.632 251.816C187.632 251.816 196.386 252.5 197.346 251.415L201.936 252.863L200.652 257.607L197.82 256.72L197.502 256.147L196.674 256.356C194.382 255.635 188.322 253.633 187.014 252.66C187.032 252.475 187.1 252.298 187.209 252.149C187.318 252.001 187.464 251.885 187.632 251.816Z" fill="#263238"/>
<path d="M213.798 203.602C219.65 188.865 223.526 173.379 225.318 157.57L206.322 154.379C206.322 154.379 203.502 189.661 202.272 204.163C201 219.238 196.062 251.36 196.062 251.36L202.2 253.27C202.2 253.27 213.162 222.355 213.798 203.602Z" fill="#00D369"/>
<path d="M232.41 102.919C231.294 106.615 230.61 111.969 231.69 114.994C229.59 116.485 226.29 118.222 222.288 117.563C218.286 116.904 219.426 114.236 220.698 112.967C223.776 111.914 224.1 110.429 223.59 109.006L232.41 102.919Z" fill="#7F3E3B"/>
<path d="M235.29 116.473C234.356 115.32 233.337 114.243 232.242 113.251C231.306 112.585 223.536 111.593 221.682 111.661C219.828 111.729 217.254 114.162 217.254 114.162L235.29 116.473Z" fill="#00D369"/>
<path opacity="0.7" d="M235.29 116.473C234.356 115.32 233.337 114.243 232.242 113.251C231.306 112.585 223.536 111.593 221.682 111.661C219.828 111.729 217.254 114.162 217.254 114.162L235.29 116.473Z" fill="white"/>
<path d="M222 98.5016C221.88 98.865 221.598 99.1175 221.37 99.0189C221.142 98.9204 221.04 98.5755 221.16 98.206C221.28 97.8365 221.562 97.5902 221.79 97.6949C222.018 97.7996 222.12 98.1383 222 98.5016Z" fill="#263238"/>
<path d="M221.862 99.0194C221.081 99.9864 220.175 100.838 219.168 101.551C219.352 101.814 219.59 102.032 219.865 102.19C220.139 102.349 220.444 102.444 220.758 102.469L221.862 99.0194Z" fill="#630F0F"/>
<path d="M222 95.9821C222.014 96.0165 222.038 96.0462 222.067 96.0679C222.097 96.0897 222.132 96.1026 222.168 96.1053C222.442 96.1338 222.705 96.2285 222.937 96.3816C223.168 96.5346 223.361 96.7417 223.5 96.9859C223.512 97.0128 223.528 97.0369 223.549 97.0569C223.57 97.0769 223.595 97.0922 223.622 97.102C223.649 97.1118 223.678 97.1159 223.706 97.1139C223.735 97.1119 223.763 97.104 223.788 97.0906C223.84 97.0641 223.88 97.0176 223.899 96.9611C223.918 96.9047 223.915 96.8428 223.89 96.7889C223.721 96.4763 223.481 96.2101 223.191 96.0128C222.901 95.8156 222.568 95.6931 222.222 95.6557C222.183 95.6535 222.145 95.6615 222.11 95.6789C222.075 95.6964 222.045 95.7227 222.022 95.7554C222 95.7881 221.986 95.8261 221.983 95.8658C221.979 95.9054 221.985 95.9455 222 95.9821Z" fill="#263238"/>
<path d="M234.318 101.613C232.608 105.999 231.828 108.661 228.918 110.195C224.496 112.505 219.774 108.575 220.17 103.738C220.524 99.389 223.254 92.945 228.09 92.6493C229.159 92.5874 230.226 92.8044 231.191 93.2799C232.156 93.7555 232.988 94.4742 233.61 95.369C234.231 96.2638 234.622 97.3056 234.746 98.3974C234.87 99.4892 234.723 100.595 234.318 101.613Z" fill="#7F3E3B"/>
<path d="M224.712 101.754C224.595 102.748 224.683 103.756 224.969 104.712C225.255 105.669 225.734 106.554 226.374 107.308C227.015 108.063 227.802 108.672 228.685 109.095C229.569 109.517 230.529 109.745 231.504 109.763C235.8 109.763 235.866 103.479 235.104 102.031C237.384 101.625 238.704 98.4088 237.312 96.3757C239.406 94.6877 234.564 92.1249 228.672 91.7922C222.174 91.4226 223.362 95.3531 225.528 96.5421C223.446 97.1766 223.23 100.984 224.712 101.754Z" fill="#263238"/>
<path d="M223.464 93.4748C223.464 93.4748 223.878 98.6436 228.108 101.755C232.338 104.866 236.1 105.155 236.1 105.155L237.144 101.755C237.144 101.755 227.592 95.8467 224.364 92.5446C224.046 92.8361 223.746 93.1467 223.464 93.4748Z" fill="#00D369"/>
<path opacity="0.6" d="M223.464 93.4748C223.464 93.4748 223.878 98.6436 228.108 101.755C232.338 104.866 236.1 105.155 236.1 105.155L237.144 101.755C237.144 101.755 227.592 95.8467 224.364 92.5446C224.046 92.8361 223.746 93.1467 223.464 93.4748Z" fill="white"/>
<path d="M226.956 101.816C226.404 102.65 225.563 103.237 224.604 103.455C223.404 103.695 223.02 102.439 223.554 101.225C224.034 100.134 225.246 98.6929 226.368 99.0009C227.49 99.309 227.676 100.757 226.956 101.816Z" fill="#7F3E3B"/>
<path d="M235.104 115.918C229.02 114.199 220.218 112.955 214.23 113.121C212.749 113.168 211.325 113.719 210.181 114.687C209.038 115.654 208.24 116.985 207.912 118.469C205.884 127.5 205.572 143.776 204.984 160.121C218.04 166.897 232.662 164.211 232.662 164.211C233.436 161.014 233.262 150.128 232.992 144.288C234.612 138.546 237.546 132.133 239.772 124.518C240.026 123.639 240.105 122.716 240.007 121.805C239.909 120.893 239.634 120.011 239.199 119.21C238.765 118.409 238.178 117.705 237.475 117.14C236.772 116.575 235.966 116.159 235.104 115.918Z" fill="#00D369"/>
<path opacity="0.7" d="M235.104 115.918C229.02 114.199 220.218 112.955 214.23 113.121C212.749 113.168 211.325 113.719 210.181 114.687C209.038 115.654 208.24 116.985 207.912 118.469C205.884 127.5 205.572 143.776 204.984 160.121C218.04 166.897 232.662 164.211 232.662 164.211C233.436 161.014 233.262 150.128 232.992 144.288C234.612 138.546 237.546 132.133 239.772 124.518C240.026 123.639 240.105 122.716 240.007 121.805C239.909 120.893 239.634 120.011 239.199 119.21C238.765 118.409 238.178 117.705 237.475 117.14C236.772 116.575 235.966 116.159 235.104 115.918Z" fill="white"/>
<path d="M215.916 112.216C210.9 111.92 207.78 114.464 206.502 122.239C205.224 130.014 203.844 147.639 204.378 153.997C221.22 161.273 231.666 158.309 233.916 156.615C234.798 155.229 234.474 150.923 234.03 149.223C235.157 146.169 235.721 142.927 235.692 139.661C238.188 137.197 239.292 132.472 239.376 130.636C241.572 127.629 241.866 120.822 240.648 118.881C239.43 116.941 235.89 113.361 215.916 112.216Z" fill="#263238"/>
<path opacity="0.2" d="M206.796 155.297C206.716 155.297 206.64 155.264 206.584 155.207C206.528 155.149 206.496 155.071 206.496 154.989C206.496 142.495 208.122 124.069 210.408 117.606C210.435 117.529 210.491 117.467 210.563 117.432C210.635 117.397 210.717 117.394 210.792 117.421C210.829 117.434 210.864 117.455 210.894 117.482C210.923 117.509 210.947 117.542 210.964 117.579C210.981 117.616 210.99 117.656 210.991 117.696C210.993 117.737 210.986 117.778 210.972 117.816C208.926 123.6 207.108 140.973 207.096 154.989C207.096 155.029 207.088 155.069 207.073 155.107C207.058 155.144 207.036 155.178 207.008 155.207C206.98 155.235 206.947 155.258 206.911 155.273C206.874 155.289 206.835 155.297 206.796 155.297Z" fill="white"/>
<path d="M215.832 120.754C214.92 122.461 213.996 123.982 213 125.553C212.004 127.124 210.96 128.634 209.82 130.125C208.673 131.668 207.439 133.141 206.124 134.536C205.417 135.293 204.668 136.006 203.88 136.673C202.96 137.473 201.953 138.161 200.88 138.725L200.664 138.836C200.556 138.89 200.443 138.935 200.328 138.971C198.527 139.515 196.641 139.703 194.772 139.526C193.937 139.459 193.107 139.334 192.288 139.15C191.504 138.985 190.729 138.78 189.966 138.534C188.503 138.051 187.078 137.452 185.706 136.741C185.028 136.39 184.374 136.014 183.726 135.62C183.078 135.226 182.478 134.819 181.8 134.314C181.365 133.992 181.052 133.526 180.915 132.994C180.777 132.463 180.823 131.898 181.046 131.398C181.268 130.897 181.652 130.491 182.133 130.249C182.614 130.006 183.162 129.943 183.684 130.069L183.888 130.118L185.766 130.568C186.402 130.722 187.044 130.858 187.68 130.981C188.918 131.231 190.168 131.417 191.424 131.535C192.572 131.643 193.726 131.643 194.874 131.535C195.79 131.465 196.687 131.233 197.526 130.851L196.974 131.104C197.403 130.78 197.805 130.42 198.174 130.026C198.636 129.539 199.134 128.985 199.614 128.393C200.094 127.802 200.574 127.161 201.042 126.514C201.51 125.868 201.996 125.196 202.458 124.506C203.376 123.138 204.294 121.728 205.188 120.292C206.082 118.857 206.988 117.372 207.816 115.98L207.858 115.906C208.168 115.368 208.578 114.899 209.065 114.524C209.552 114.149 210.106 113.876 210.695 113.721C211.285 113.566 211.898 113.532 212.5 113.62C213.103 113.709 213.682 113.918 214.206 114.236C214.73 114.555 215.187 114.976 215.552 115.476C215.917 115.975 216.183 116.544 216.334 117.149C216.485 117.755 216.518 118.385 216.432 119.003C216.346 119.622 216.142 120.217 215.832 120.754Z" fill="#00D369"/>
<path opacity="0.7" d="M215.832 120.754C214.92 122.461 213.996 123.982 213 125.553C212.004 127.124 210.96 128.634 209.82 130.125C208.673 131.668 207.439 133.141 206.124 134.536C205.417 135.293 204.668 136.006 203.88 136.673C202.96 137.473 201.953 138.161 200.88 138.725L200.664 138.836C200.556 138.89 200.443 138.935 200.328 138.971C198.527 139.515 196.641 139.703 194.772 139.526C193.937 139.459 193.107 139.334 192.288 139.15C191.504 138.985 190.729 138.78 189.966 138.534C188.503 138.051 187.078 137.452 185.706 136.741C185.028 136.39 184.374 136.014 183.726 135.62C183.078 135.226 182.478 134.819 181.8 134.314C181.365 133.992 181.052 133.526 180.915 132.994C180.777 132.463 180.823 131.898 181.046 131.398C181.268 130.897 181.652 130.491 182.133 130.249C182.614 130.006 183.162 129.943 183.684 130.069L183.888 130.118L185.766 130.568C186.402 130.722 187.044 130.858 187.68 130.981C188.918 131.231 190.168 131.417 191.424 131.535C192.572 131.643 193.726 131.643 194.874 131.535C195.79 131.465 196.687 131.233 197.526 130.851L196.974 131.104C197.403 130.78 197.805 130.42 198.174 130.026C198.636 129.539 199.134 128.985 199.614 128.393C200.094 127.802 200.574 127.161 201.042 126.514C201.51 125.868 201.996 125.196 202.458 124.506C203.376 123.138 204.294 121.728 205.188 120.292C206.082 118.857 206.988 117.372 207.816 115.98L207.858 115.906C208.168 115.368 208.578 114.899 209.065 114.524C209.552 114.149 210.106 113.876 210.695 113.721C211.285 113.566 211.898 113.532 212.5 113.62C213.103 113.709 213.682 113.918 214.206 114.236C214.73 114.555 215.187 114.976 215.552 115.476C215.917 115.975 216.183 116.544 216.334 117.149C216.485 117.755 216.518 118.385 216.432 119.003C216.346 119.622 216.142 120.217 215.832 120.754Z" fill="white"/>
<path d="M237.228 103.917C237.15 103.995 237.054 104.05 236.948 104.076C236.842 104.102 236.732 104.098 236.628 104.065C233.255 102.741 230.15 100.786 227.472 98.2986C222.93 94.0231 222.54 89.1254 224.556 91.4665C225.672 90.2343 230.412 88.7311 234.804 90.6841C239.448 92.7602 241.686 99.1919 237.228 103.917Z" fill="#00D369"/>
<path d="M233.346 90.1661C234.488 91.2794 235.307 92.697 235.709 94.2604C236.112 95.8238 236.083 97.4714 235.626 99.019C236.603 98.8013 237.542 98.4314 238.41 97.9224C238.41 97.9224 239.112 94.4663 237.81 92.2423C236.508 90.0183 233.628 89.4577 233.346 90.1661Z" fill="#00D369"/>
<path opacity="0.2" d="M235.626 99.0189C236.083 97.4713 236.112 95.8237 235.709 94.2603C235.307 92.6969 234.488 91.2793 233.346 90.166C233.384 90.0968 233.438 90.0379 233.502 89.994C233.567 89.9501 233.641 89.9225 233.718 89.9135C234.63 90.5172 237.144 94.1828 235.626 99.0189Z" fill="black"/>
</svg>
