<svg width="100" height="63" viewBox="0 0 100 63" fill="none" xmlns="http://www.w3.org/2000/svg">
<g clip-path="url(#clip0)">
<path d="M23.6392 16.34H42.4689V17.8802H25.3657V29.4708H41.4489V31.011H25.3657V43.7365H42.665V45.2767H23.6392V16.34ZM44.1555 16.34H46.1565L55.0221 29.0655L64.0838 16.34L76.4091 0.176025L56.1598 30.403L66.5944 45.2767H64.5151L55.0221 31.7405L45.4899 45.2767H43.4498L53.9628 30.403L44.1562 16.34H44.1555ZM67.34 17.8802V16.34H88.7974V17.8802H78.9123V45.276H77.1859V17.8802H67.3407H67.34ZM0.0828857 16.34H2.24065L31.9917 62.1521L19.6968 45.2767L1.88711 18.5285L1.80869 45.2767H0.0828857V16.34ZM88.6243 43.2715C88.2708 43.2715 88.0065 42.9903 88.0065 42.6273C88.0065 42.2636 88.2708 41.9825 88.6236 41.9825C88.9806 41.9825 89.2408 42.2636 89.2408 42.6273C89.2408 42.9903 88.9806 43.2715 88.6236 43.2715H88.6243ZM90.3197 41.5758H91.2438C91.2566 42.0908 91.6223 42.4365 92.1591 42.4365C92.7594 42.4365 93.0994 42.0651 93.0994 41.3683V36.9566H94.0397V41.3724C94.0397 42.6273 93.3346 43.3499 92.1672 43.3499C91.0721 43.3499 90.3204 42.6489 90.3204 41.5758H90.3197ZM95.2693 41.5203H96.2015C96.2813 42.1123 96.8437 42.4885 97.6542 42.4885C98.4093 42.4885 98.9636 42.0859 98.9636 41.5328C98.9636 41.0573 98.6114 40.7713 97.809 40.577L97.0282 40.3826C95.9331 40.1189 95.4329 39.5733 95.4329 38.6564C95.4329 37.5445 96.3144 36.8046 97.6366 36.8046C98.8669 36.8046 99.766 37.5445 99.8201 38.5954H98.9048C98.8169 38.0207 98.3302 37.6611 97.6245 37.6611C96.8809 37.6611 96.386 38.029 96.386 38.5912C96.386 39.0368 96.7051 39.2922 97.4947 39.4824L98.1619 39.6511C99.4044 39.9495 99.9168 40.4687 99.9168 41.4071C99.9168 42.601 99.0177 43.3499 97.5826 43.3499C96.2394 43.3499 95.3362 42.6357 95.2693 41.5196V41.5203Z" fill="black"/>
</g>
<defs>
<clipPath id="clip0">
<rect width="100" height="61.9761" fill="white" transform="translate(0 0.176025)"/>
</clipPath>
</defs>
</svg>
