<svg width="60" height="61" viewBox="0 0 60 61" fill="none" xmlns="http://www.w3.org/2000/svg">
<path d="M29.9502 35.0149C32.7227 35.0149 34.9702 32.7674 34.9702 29.9949C34.9702 27.2225 32.7227 24.9749 29.9502 24.9749C27.1777 24.9749 24.9302 27.2225 24.9302 29.9949C24.9302 32.7674 27.1777 35.0149 29.9502 35.0149Z" fill="#00D8FF"/>
<path d="M29.95 41.4949C22.9 41.4949 16.74 40.665 12.13 39.085C9.14 38.065 6.6 36.705 4.79 35.155C2.87 33.5149 1.85 31.725 1.85 29.995C1.85 26.6749 5.49 23.425 11.6 21.3049C16.6 19.5649 23.12 18.595 29.94 18.595C36.64 18.595 43.07 19.5349 48.04 21.2549C50.95 22.255 53.4 23.5549 55.14 24.9949C57.03 26.575 58.03 28.305 58.03 29.995C58.03 33.445 53.96 36.9349 47.4 39.105C42.76 40.645 36.56 41.4949 29.95 41.4949ZM29.95 20.995C23.48 20.995 17.08 21.9349 12.4 23.5649C6.78 25.525 4.26 28.2049 4.26 29.995C4.26 31.855 6.97 34.785 12.91 36.8149C17.27 38.305 23.17 39.0949 29.95 39.0949C36.31 39.0949 42.24 38.295 46.65 36.825C52.82 34.7749 55.64 31.845 55.64 29.995C55.64 29.0449 54.92 27.925 53.61 26.835C52.1 25.5749 49.9 24.4249 47.27 23.515C42.54 21.895 36.39 20.995 29.95 20.995Z" fill="#00D8FF"/>
<path d="M18.5602 55.0149C17.5402 55.0149 16.6402 54.795 15.8801 54.3549C13.0102 52.695 12.0101 47.9149 13.2202 41.565C14.2102 36.3549 16.6301 30.2349 20.0401 24.3249C23.3902 18.5248 27.4102 13.425 31.3801 9.97491C33.7001 7.95491 36.0502 6.4749 38.1701 5.6949C40.4801 4.84491 42.4801 4.84491 43.9402 5.68491C46.9301 7.4049 47.9201 12.6849 46.5202 19.4449C45.5302 24.2449 43.1701 30.0349 39.8701 35.7649C36.3502 41.865 32.5501 46.785 28.8802 49.995C26.5001 52.0749 24.0502 53.595 21.8101 54.3849C20.6401 54.8049 19.5401 55.0149 18.5602 55.0149ZM21.0701 24.9249L22.1101 25.5249C18.8801 31.1248 16.4902 37.1349 15.5701 42.015C14.4601 47.865 15.5302 51.3849 17.0701 52.275C17.4502 52.4949 17.9501 52.6149 18.5602 52.6149C20.5501 52.6149 23.6801 51.3549 27.3001 48.195C30.7702 45.165 34.4002 40.4449 37.7902 34.575C40.9702 29.0649 43.2301 23.5249 44.1701 18.9748C45.4801 12.6049 44.3501 8.70491 42.7402 7.77491C41.9201 7.30491 40.5901 7.36491 38.9902 7.95491C37.1401 8.6349 35.0501 9.96491 32.9501 11.7949C29.1802 15.075 25.3301 19.9549 22.1101 25.5349L21.0701 24.9249Z" fill="#00D8FF"/>
<path d="M41.3402 55.0449C38.6203 55.0449 35.1703 53.4049 31.5703 50.3049C27.5503 46.8448 23.4602 41.6949 20.0402 35.7849C16.6802 29.9848 14.2802 23.9548 13.2703 18.7849C12.6803 15.7648 12.5702 12.9949 12.9503 10.7649C13.3703 8.33488 14.3603 6.60488 15.8303 5.75488C18.8102 4.02488 23.8802 5.80489 29.0402 10.3949C32.7002 13.6449 36.5402 18.5848 39.8503 24.3049C43.3802 30.4048 45.7502 36.1549 46.6902 40.9348C47.3003 44.0349 47.4002 46.9149 46.9703 49.2549C46.5103 51.7449 45.4703 53.5149 43.9703 54.3849C43.2203 54.8248 42.3302 55.0449 41.3402 55.0449ZM22.1203 34.5849C25.3603 40.1848 29.3803 45.2548 33.1403 48.4849C37.6502 52.3648 41.2303 53.2048 42.7802 52.3048C44.3903 51.3748 45.5702 47.5648 44.3503 41.4049C43.4503 36.8848 41.1803 31.3849 37.7803 25.5148C34.5902 20.0049 30.9203 15.2749 27.4502 12.1948C22.5902 7.87488 18.6503 6.90488 17.0402 7.83488C16.2203 8.30489 15.6103 9.49489 15.3203 11.1749C14.9903 13.1149 15.0902 15.5949 15.6302 18.3249C16.5902 23.2348 18.8903 29.0049 22.1203 34.5849Z" fill="#00D8FF"/>
</svg>
