<svg width="215" height="215" viewBox="0 0 215 215" fill="none" xmlns="http://www.w3.org/2000/svg">
<g clip-path="url(#clip0)">
<path d="M106.936 122.496L77.5075 110.187C75.7069 109.453 73.6554 109.641 72.025 110.716C70.4036 111.791 69.4271 113.619 69.4271 115.571V160.274C69.4271 162.683 70.9052 164.842 73.1538 165.711C73.8346 165.98 74.5513 166.105 75.259 166.105C76.8715 166.105 78.4481 165.433 79.5769 164.188L109.005 131.795C110.277 130.397 110.797 128.462 110.376 126.608C109.964 124.763 108.683 123.231 106.936 122.496Z" fill="#00D369"/>
<path d="M212.85 1.79253C210.969 0.0456582 208.245 -0.473925 205.845 0.457742L4.28203 78.8432C1.69307 79.8465 -0.00901469 82.3459 -5.63612e-05 85.1319C0.00890197 87.918 1.7289 90.3994 4.32682 91.3848L163.337 151.854C164.108 152.14 164.923 152.293 165.729 152.293C166.741 152.293 167.754 152.069 168.685 151.612C170.361 150.788 171.615 149.318 172.161 147.545L214.713 8.69045C215.457 6.22691 214.74 3.54837 212.85 1.79253Z" fill="#00D369"/>
<path d="M69.4271 116.458L170.208 44.7917L94.806 128.4L69.4271 116.458Z" fill="#00D369"/>
<path d="M165.729 152.291C164.923 152.291 164.108 152.138 163.337 151.852L4.32688 91.383C1.72896 90.3976 0.00896319 87.9072 4.85866e-06 85.1301C-0.00895348 82.3531 1.68417 79.8447 4.29105 78.8414L205.854 0.455958C208.245 -0.466751 210.969 0.0438745 212.859 1.79075C214.74 3.54658 215.466 6.22513 214.704 8.68867L172.152 147.543C171.606 149.317 170.352 150.786 168.685 151.61C167.754 152.067 166.742 152.291 165.729 152.291ZM25.4417 85.0316L161.411 136.739L197.791 18.0053L25.4417 85.0316Z" fill="black"/>
<path d="M76.1458 170.208C75.3306 170.208 74.5065 170.056 73.7181 169.751C71.1292 168.757 69.4271 166.267 69.4271 163.489V111.979C69.4271 109.928 70.3588 108.002 71.9533 106.72L204.089 1.46007C207 -0.833259 211.229 -0.376384 213.54 2.52612C215.851 5.42862 215.367 9.65695 212.474 11.9772L82.8646 115.213V146.101L105.09 121.645C107.581 118.886 111.836 118.698 114.577 121.188C117.327 123.679 117.533 127.934 115.034 130.675L81.1177 168.004C79.8188 169.438 78.0002 170.208 76.1458 170.208Z" fill="black"/>
<path d="M71.5412 177.859C70.2602 177.859 68.9792 177.5 67.8325 176.739C64.7419 174.687 63.9087 170.522 65.9512 167.422C68.585 163.463 70.09 160.56 70.1706 160.417C71.8548 157.12 75.886 155.803 79.2096 157.523C82.5062 159.207 83.8142 163.257 82.13 166.553C82.13 166.553 80.3473 170.047 77.1492 174.867C75.8592 176.802 73.7181 177.859 71.5412 177.859Z" fill="black"/>
<path d="M25.146 202.548C24.5727 202.548 23.9725 202.467 23.3902 202.315C14.9425 200.022 8.7523 194.933 4.99875 187.175C3.38625 183.834 4.79271 179.821 8.13417 178.199C11.5025 176.587 15.4979 178.002 17.1104 181.335C19.1619 185.608 22.1898 188.071 26.9108 189.361C30.4852 190.329 32.6083 194.029 31.6319 197.603C30.8077 200.586 28.1113 202.548 25.146 202.548ZM43.7704 202.503C40.9396 202.503 38.3058 200.703 37.3742 197.854C36.2365 194.315 38.1715 190.535 41.6921 189.388C45.9831 188.009 50.4354 185.124 54.9146 180.842C57.5931 178.28 61.8394 178.36 64.4194 181.048C66.9815 183.735 66.8829 187.982 64.2133 190.553C58.256 196.25 52.0838 200.156 45.8488 202.181C45.15 202.405 44.4513 202.503 43.7704 202.503Z" fill="black"/>
<path d="M6.97854 172.457C3.46687 172.457 0.510625 169.724 0.286667 166.177C0.0985417 163.248 0 160.103 0 156.771C0 153.062 3.01 150.052 6.71875 150.052C10.4275 150.052 13.4375 153.062 13.4375 156.771C13.4375 159.79 13.5181 162.629 13.6883 165.299C13.9302 168.999 11.1352 172.206 7.42646 172.439C7.27417 172.448 7.13083 172.457 6.97854 172.457Z" fill="black"/>
</g>
<defs>
<clipPath id="clip0">
<rect width="215" height="215" fill="white"/>
</clipPath>
</defs>
</svg>
