<svg width="50" height="52" viewBox="0 0 50 52" fill="none" xmlns="http://www.w3.org/2000/svg">
<g clip-path="url(#clip0)">
<path d="M0 25.9792V0.309875H50V51.6486H0" fill="#007ACC"/>
<path d="M10.9625 26.0691V28.1611H17.4625V47.1565H22.075V28.1611H28.5751V26.1076C28.5751 24.9524 28.5751 24.0155 28.5251 23.9898C28.5251 23.9513 24.5625 23.9385 19.75 23.9385L11 23.977V26.0819L10.9625 26.0691ZM40.1751 23.9257C41.4501 24.2337 42.4251 24.8241 43.3001 25.761C43.7626 26.2744 44.4501 27.1728 44.5001 27.4039C44.5001 27.4809 42.3376 28.9825 41.0251 29.8168C40.9751 29.8553 40.7751 29.6371 40.5751 29.3034C39.9251 28.3536 39.2626 27.9429 38.2251 27.8659C36.7251 27.7632 35.7251 28.5718 35.7251 29.9195C35.7251 30.3302 35.8001 30.5612 35.9501 30.8949C36.2876 31.6008 36.9126 32.0244 38.8501 32.8971C42.4251 34.4758 43.9751 35.5154 44.9126 37.0043C45.9751 38.6728 46.2126 41.2911 45.5001 43.2548C44.7001 45.3982 42.7501 46.8485 39.9626 47.3234C39.0876 47.4774 37.0876 47.4517 36.1501 47.2849C34.1501 46.8998 32.2376 45.8731 31.0626 44.5511C30.6001 44.0377 29.7126 42.6644 29.7626 42.5745L30.2376 42.2665L32.1126 41.1499L33.5251 40.3028L33.8501 40.752C34.2626 41.4194 35.1876 42.3178 35.7251 42.6259C37.3501 43.4858 39.5251 43.3703 40.6001 42.3692C41.0626 41.9328 41.2626 41.4708 41.2626 40.829C41.2626 40.2386 41.1751 39.9691 40.8876 39.5199C40.4876 38.9551 39.6876 38.4931 37.4376 37.4663C34.8501 36.3369 33.7501 35.6181 32.7251 34.5143C32.1376 33.8469 31.6001 32.8073 31.3501 31.9474C31.1626 31.203 31.1001 29.3804 31.2751 28.6488C31.8126 26.0819 33.7001 24.285 36.4001 23.7716C37.2751 23.592 39.3376 23.669 40.2001 23.9L40.1751 23.9257Z" fill="white"/>
</g>
<defs>
<clipPath id="clip0">
<rect width="50" height="51.3387" fill="white" transform="translate(0 0.309875)"/>
</clipPath>
</defs>
</svg>
